<svg xmlns="http://www.w3.org/2000/svg" xmlns:xlink="http://www.w3.org/1999/xlink" width="500" zoomAndPan="magnify" viewBox="0 0 375 374.999991" height="500" preserveAspectRatio="xMidYMid meet" version="1.2"><defs><clipPath id="834dd8f267"><path d="M 22 120.007812 L 112.824219 120.007812 L 112.824219 255 L 22 255 Z M 22 120.007812 "/></clipPath><clipPath id="38ef61cf3e"><rect x="0" width="206" y="0" height="15"/></clipPath></defs><g id="cdee0d4bf1"><rect x="0" width="375" y="0" height="374.999991" style="fill:#ffffff;fill-opacity:1;stroke:none;"/><rect x="0" width="375" y="0" height="374.999991" style="fill:#000000;fill-opacity:1;stroke:none;"/><path style=" stroke:none;fill-rule:nonzero;fill:#ffffff;fill-opacity:1;" d="M 127.59375 128.414062 L 129.09375 128.414062 L 129.09375 129.914062 L 127.59375 129.914062 M 130.59375 128.414062 L 132.09375 128.414062 L 132.09375 129.914062 L 130.59375 129.914062 M 133.59375 128.414062 L 135.09375 128.414062 L 135.09375 129.914062 L 133.59375 129.914062 M 136.59375 128.414062 L 138.09375 128.414062 L 138.09375 129.914062 L 136.59375 129.914062 M 139.59375 128.414062 L 141.09375 128.414062 L 141.09375 129.914062 L 139.59375 129.914062 M 142.59375 128.414062 L 144.09375 128.414062 L 144.09375 129.914062 L 142.59375 129.914062 M 145.59375 128.414062 L 147.09375 128.414062 L 147.09375 129.914062 L 145.59375 129.914062 M 148.59375 128.414062 L 150.09375 128.414062 L 150.09375 129.914062 L 148.59375 129.914062 M 151.59375 128.414062 L 153.09375 128.414062 L 153.09375 129.914062 L 151.59375 129.914062 M 154.59375 128.414062 L 156.09375 128.414062 L 156.09375 129.914062 L 154.59375 129.914062 M 157.59375 128.414062 L 159.09375 128.414062 L 159.09375 129.914062 L 157.59375 129.914062 M 160.59375 128.414062 L 162.09375 128.414062 L 162.09375 129.914062 L 160.59375 129.914062 M 163.59375 128.414062 L 165.09375 128.414062 L 165.09375 129.914062 L 163.59375 129.914062 M 166.59375 128.414062 L 168.09375 128.414062 L 168.09375 129.914062 L 166.59375 129.914062 M 169.59375 128.414062 L 171.09375 128.414062 L 171.09375 129.914062 L 169.59375 129.914062 M 172.59375 128.414062 L 174.09375 128.414062 L 174.09375 129.914062 L 172.59375 129.914062 M 175.59375 128.414062 L 177.09375 128.414062 L 177.09375 129.914062 L 175.59375 129.914062 M 178.59375 128.414062 L 180.09375 128.414062 L 180.09375 129.914062 L 178.59375 129.914062 M 181.59375 128.414062 L 183.09375 128.414062 L 183.09375 129.914062 L 181.59375 129.914062 M 184.59375 128.414062 L 186.09375 128.414062 L 186.09375 129.914062 L 184.59375 129.914062 M 187.59375 128.414062 L 189.09375 128.414062 L 189.09375 129.914062 L 187.59375 129.914062 M 190.59375 128.414062 L 192.09375 128.414062 L 192.09375 129.914062 L 190.59375 129.914062 M 193.59375 128.414062 L 195.09375 128.414062 L 195.09375 129.914062 L 193.59375 129.914062 M 196.59375 128.414062 L 198.09375 128.414062 L 198.09375 129.914062 L 196.59375 129.914062 M 199.59375 128.414062 L 201.09375 128.414062 L 201.09375 129.914062 L 199.59375 129.914062 M 202.59375 128.414062 L 204.09375 128.414062 L 204.09375 129.914062 L 202.59375 129.914062 M 205.59375 128.414062 L 207.09375 128.414062 L 207.09375 129.914062 L 205.59375 129.914062 M 208.59375 128.414062 L 210.09375 128.414062 L 210.09375 129.914062 L 208.59375 129.914062 M 211.59375 128.414062 L 213.09375 128.414062 L 213.09375 129.914062 L 211.59375 129.914062 M 214.59375 128.414062 L 216.09375 128.414062 L 216.09375 129.914062 L 214.59375 129.914062 M 217.59375 128.414062 L 219.09375 128.414062 L 219.09375 129.914062 L 217.59375 129.914062 M 220.59375 128.414062 L 222.09375 128.414062 L 222.09375 129.914062 L 220.59375 129.914062 M 223.59375 128.414062 L 225.09375 128.414062 L 225.09375 129.914062 L 223.59375 129.914062 M 226.59375 128.414062 L 228.09375 128.414062 L 228.09375 129.914062 L 226.59375 129.914062 M 229.59375 128.414062 L 231.09375 128.414062 L 231.09375 129.914062 L 229.59375 129.914062 M 232.59375 128.414062 L 234.09375 128.414062 L 234.09375 129.914062 L 232.59375 129.914062 M 235.59375 128.414062 L 237.09375 128.414062 L 237.09375 129.914062 L 235.59375 129.914062 M 238.59375 128.414062 L 240.09375 128.414062 L 240.09375 129.914062 L 238.59375 129.914062 M 241.59375 128.414062 L 243.09375 128.414062 L 243.09375 129.914062 L 241.59375 129.914062 M 244.59375 128.414062 L 246.09375 128.414062 L 246.09375 129.914062 L 244.59375 129.914062 M 247.59375 128.414062 L 249.09375 128.414062 L 249.09375 129.914062 L 247.59375 129.914062 M 250.59375 128.414062 L 252.09375 128.414062 L 252.09375 129.914062 L 250.59375 129.914062 M 253.59375 128.414062 L 255.09375 128.414062 L 255.09375 129.914062 L 253.59375 129.914062 M 256.59375 128.414062 L 258.09375 128.414062 L 258.09375 129.914062 L 256.59375 129.914062 M 259.59375 128.414062 L 261.09375 128.414062 L 261.09375 129.914062 L 259.59375 129.914062 M 262.59375 128.414062 L 264.09375 128.414062 L 264.09375 129.914062 L 262.59375 129.914062 M 265.59375 128.414062 L 267.09375 128.414062 L 267.09375 129.914062 L 265.59375 129.914062 M 268.59375 128.414062 L 270.09375 128.414062 L 270.09375 129.914062 L 268.59375 129.914062 M 271.59375 128.414062 L 273.09375 128.414062 L 273.09375 129.914062 L 271.59375 129.914062 M 274.59375 128.414062 L 276.09375 128.414062 L 276.09375 129.914062 L 274.59375 129.914062 M 277.59375 128.414062 L 279.09375 128.414062 L 279.09375 129.914062 L 277.59375 129.914062 M 280.59375 128.414062 L 282.09375 128.414062 L 282.09375 129.914062 L 280.59375 129.914062 M 283.59375 128.414062 L 285.09375 128.414062 L 285.09375 129.914062 L 283.59375 129.914062 M 286.59375 128.414062 L 288.09375 128.414062 L 288.09375 129.914062 L 286.59375 129.914062 M 289.59375 128.414062 L 291.09375 128.414062 L 291.09375 129.914062 L 289.59375 129.914062 M 292.59375 128.414062 L 294.09375 128.414062 L 294.09375 129.914062 L 292.59375 129.914062 M 295.59375 128.414062 L 297.09375 128.414062 L 297.09375 129.914062 L 295.59375 129.914062 M 298.59375 128.414062 L 300.09375 128.414062 L 300.09375 129.914062 L 298.59375 129.914062 M 301.59375 128.414062 L 303.09375 128.414062 L 303.09375 129.914062 L 301.59375 129.914062 M 304.59375 128.414062 L 306.09375 128.414062 L 306.09375 129.914062 L 304.59375 129.914062 M 307.59375 128.414062 L 309.09375 128.414062 L 309.09375 129.914062 L 307.59375 129.914062 M 310.59375 128.414062 L 312.09375 128.414062 L 312.09375 129.914062 L 310.59375 129.914062 M 313.59375 128.414062 L 315.09375 128.414062 L 315.09375 129.914062 L 313.59375 129.914062 M 316.59375 128.414062 L 318.09375 128.414062 L 318.09375 129.914062 L 316.59375 129.914062 M 319.59375 128.414062 L 321.09375 128.414062 L 321.09375 129.914062 L 319.59375 129.914062 M 322.59375 128.414062 L 324.09375 128.414062 L 324.09375 129.914062 L 322.59375 129.914062 M 325.59375 128.414062 L 327.09375 128.414062 L 327.09375 129.914062 L 325.59375 129.914062 M 328.59375 128.414062 L 330.09375 128.414062 L 330.09375 129.914062 L 328.59375 129.914062 M 331.59375 128.414062 L 333.09375 128.414062 L 333.09375 129.914062 L 331.59375 129.914062 M 334.59375 128.414062 L 336.09375 128.414062 L 336.09375 129.914062 L 334.59375 129.914062 "/><path style=" stroke:none;fill-rule:nonzero;fill:#ffffff;fill-opacity:1;" d="M 127.59375 245.085938 L 129.09375 245.085938 L 129.09375 246.585938 L 127.59375 246.585938 M 130.59375 245.085938 L 132.09375 245.085938 L 132.09375 246.585938 L 130.59375 246.585938 M 133.59375 245.085938 L 135.09375 245.085938 L 135.09375 246.585938 L 133.59375 246.585938 M 136.59375 245.085938 L 138.09375 245.085938 L 138.09375 246.585938 L 136.59375 246.585938 M 139.59375 245.085938 L 141.09375 245.085938 L 141.09375 246.585938 L 139.59375 246.585938 M 142.59375 245.085938 L 144.09375 245.085938 L 144.09375 246.585938 L 142.59375 246.585938 M 145.59375 245.085938 L 147.09375 245.085938 L 147.09375 246.585938 L 145.59375 246.585938 M 148.59375 245.085938 L 150.09375 245.085938 L 150.09375 246.585938 L 148.59375 246.585938 M 151.59375 245.085938 L 153.09375 245.085938 L 153.09375 246.585938 L 151.59375 246.585938 M 154.59375 245.085938 L 156.09375 245.085938 L 156.09375 246.585938 L 154.59375 246.585938 M 157.59375 245.085938 L 159.09375 245.085938 L 159.09375 246.585938 L 157.59375 246.585938 M 160.59375 245.085938 L 162.09375 245.085938 L 162.09375 246.585938 L 160.59375 246.585938 M 163.59375 245.085938 L 165.09375 245.085938 L 165.09375 246.585938 L 163.59375 246.585938 M 166.59375 245.085938 L 168.09375 245.085938 L 168.09375 246.585938 L 166.59375 246.585938 M 169.59375 245.085938 L 171.09375 245.085938 L 171.09375 246.585938 L 169.59375 246.585938 M 172.59375 245.085938 L 174.09375 245.085938 L 174.09375 246.585938 L 172.59375 246.585938 M 175.59375 245.085938 L 177.09375 245.085938 L 177.09375 246.585938 L 175.59375 246.585938 M 178.59375 245.085938 L 180.09375 245.085938 L 180.09375 246.585938 L 178.59375 246.585938 M 181.59375 245.085938 L 183.09375 245.085938 L 183.09375 246.585938 L 181.59375 246.585938 M 184.59375 245.085938 L 186.09375 245.085938 L 186.09375 246.585938 L 184.59375 246.585938 M 187.59375 245.085938 L 189.09375 245.085938 L 189.09375 246.585938 L 187.59375 246.585938 M 190.59375 245.085938 L 192.09375 245.085938 L 192.09375 246.585938 L 190.59375 246.585938 M 193.59375 245.085938 L 195.09375 245.085938 L 195.09375 246.585938 L 193.59375 246.585938 M 196.59375 245.085938 L 198.09375 245.085938 L 198.09375 246.585938 L 196.59375 246.585938 M 199.59375 245.085938 L 201.09375 245.085938 L 201.09375 246.585938 L 199.59375 246.585938 M 202.59375 245.085938 L 204.09375 245.085938 L 204.09375 246.585938 L 202.59375 246.585938 M 205.59375 245.085938 L 207.09375 245.085938 L 207.09375 246.585938 L 205.59375 246.585938 M 208.59375 245.085938 L 210.09375 245.085938 L 210.09375 246.585938 L 208.59375 246.585938 M 211.59375 245.085938 L 213.09375 245.085938 L 213.09375 246.585938 L 211.59375 246.585938 M 214.59375 245.085938 L 216.09375 245.085938 L 216.09375 246.585938 L 214.59375 246.585938 M 217.59375 245.085938 L 219.09375 245.085938 L 219.09375 246.585938 L 217.59375 246.585938 M 220.59375 245.085938 L 222.09375 245.085938 L 222.09375 246.585938 L 220.59375 246.585938 M 223.59375 245.085938 L 225.09375 245.085938 L 225.09375 246.585938 L 223.59375 246.585938 M 226.59375 245.085938 L 228.09375 245.085938 L 228.09375 246.585938 L 226.59375 246.585938 M 229.59375 245.085938 L 231.09375 245.085938 L 231.09375 246.585938 L 229.59375 246.585938 M 232.59375 245.085938 L 234.09375 245.085938 L 234.09375 246.585938 L 232.59375 246.585938 M 235.59375 245.085938 L 237.09375 245.085938 L 237.09375 246.585938 L 235.59375 246.585938 M 238.59375 245.085938 L 240.09375 245.085938 L 240.09375 246.585938 L 238.59375 246.585938 M 241.59375 245.085938 L 243.09375 245.085938 L 243.09375 246.585938 L 241.59375 246.585938 M 244.59375 245.085938 L 246.09375 245.085938 L 246.09375 246.585938 L 244.59375 246.585938 M 247.59375 245.085938 L 249.09375 245.085938 L 249.09375 246.585938 L 247.59375 246.585938 M 250.59375 245.085938 L 252.09375 245.085938 L 252.09375 246.585938 L 250.59375 246.585938 M 253.59375 245.085938 L 255.09375 245.085938 L 255.09375 246.585938 L 253.59375 246.585938 M 256.59375 245.085938 L 258.09375 245.085938 L 258.09375 246.585938 L 256.59375 246.585938 M 259.59375 245.085938 L 261.09375 245.085938 L 261.09375 246.585938 L 259.59375 246.585938 M 262.59375 245.085938 L 264.09375 245.085938 L 264.09375 246.585938 L 262.59375 246.585938 M 265.59375 245.085938 L 267.09375 245.085938 L 267.09375 246.585938 L 265.59375 246.585938 M 268.59375 245.085938 L 270.09375 245.085938 L 270.09375 246.585938 L 268.59375 246.585938 M 271.59375 245.085938 L 273.09375 245.085938 L 273.09375 246.585938 L 271.59375 246.585938 M 274.59375 245.085938 L 276.09375 245.085938 L 276.09375 246.585938 L 274.59375 246.585938 M 277.59375 245.085938 L 279.09375 245.085938 L 279.09375 246.585938 L 277.59375 246.585938 M 280.59375 245.085938 L 282.09375 245.085938 L 282.09375 246.585938 L 280.59375 246.585938 M 283.59375 245.085938 L 285.09375 245.085938 L 285.09375 246.585938 L 283.59375 246.585938 M 286.59375 245.085938 L 288.09375 245.085938 L 288.09375 246.585938 L 286.59375 246.585938 M 289.59375 245.085938 L 291.09375 245.085938 L 291.09375 246.585938 L 289.59375 246.585938 M 292.59375 245.085938 L 294.09375 245.085938 L 294.09375 246.585938 L 292.59375 246.585938 M 295.59375 245.085938 L 297.09375 245.085938 L 297.09375 246.585938 L 295.59375 246.585938 M 298.59375 245.085938 L 300.09375 245.085938 L 300.09375 246.585938 L 298.59375 246.585938 M 301.59375 245.085938 L 303.09375 245.085938 L 303.09375 246.585938 L 301.59375 246.585938 M 304.59375 245.085938 L 306.09375 245.085938 L 306.09375 246.585938 L 304.59375 246.585938 M 307.59375 245.085938 L 309.09375 245.085938 L 309.09375 246.585938 L 307.59375 246.585938 M 310.59375 245.085938 L 312.09375 245.085938 L 312.09375 246.585938 L 310.59375 246.585938 M 313.59375 245.085938 L 315.09375 245.085938 L 315.09375 246.585938 L 313.59375 246.585938 M 316.59375 245.085938 L 318.09375 245.085938 L 318.09375 246.585938 L 316.59375 246.585938 M 319.59375 245.085938 L 321.09375 245.085938 L 321.09375 246.585938 L 319.59375 246.585938 M 322.59375 245.085938 L 324.09375 245.085938 L 324.09375 246.585938 L 322.59375 246.585938 M 325.59375 245.085938 L 327.09375 245.085938 L 327.09375 246.585938 L 325.59375 246.585938 M 328.59375 245.085938 L 330.09375 245.085938 L 330.09375 246.585938 L 328.59375 246.585938 M 331.59375 245.085938 L 333.09375 245.085938 L 333.09375 246.585938 L 331.59375 246.585938 M 334.59375 245.085938 L 336.09375 245.085938 L 336.09375 246.585938 L 334.59375 246.585938 "/><g clip-rule="nonzero" clip-path="url(#834dd8f267)"><path style=" stroke:none;fill-rule:nonzero;fill:#000000;fill-opacity:1;" d="M 93.851562 121.269531 C 93.851562 122.324219 93.363281 125.332031 94.179688 125.785156 C 94.675781 126.066406 95.925781 125.5 96.394531 125.324219 C 97.828125 124.785156 96.984375 125.644531 97.582031 125.984375 C 97.792969 126.105469 97.511719 126.527344 98.152344 126.636719 C 98.589844 126.707031 99.179688 126.4375 99.578125 126.558594 C 101.550781 127.144531 100.324219 128.890625 102.828125 128.75 C 104.359375 128.664062 104.160156 130.367188 105.246094 131.09375 C 106.058594 131.640625 107.300781 131.410156 107.683594 132.460938 C 107.773438 132.714844 106.246094 132.949219 107.363281 133.550781 C 107.992188 133.890625 108.625 133.816406 109.128906 134.332031 C 109.886719 135.101562 108.394531 135.292969 110.03125 135.589844 C 110.785156 135.722656 111.71875 135.285156 112.523438 135.367188 C 112.796875 135.398438 112.132812 145.117188 112.074219 146.382812 C 111.371094 161.480469 111.253906 176.625 111.074219 191.734375 C 110.984375 199.359375 110.929688 206.984375 110.882812 214.613281 C 110.855469 218.757812 110.84375 222.902344 110.84375 227.050781 C 110.84375 228.683594 110.847656 230.316406 110.855469 231.945312 C 110.859375 233.308594 111.328125 235.921875 110.777344 237.199219 C 109.976562 239.066406 107.011719 238.972656 105.269531 239.292969 C 101.820312 239.925781 98.382812 240.644531 94.949219 241.363281 C 88.042969 242.804688 81.160156 244.386719 74.222656 245.660156 C 66.984375 246.988281 59.816406 248.730469 52.582031 250.085938 C 49.027344 250.75 45.417969 251.097656 41.832031 251.570312 C 40.1875 251.785156 38.558594 252.082031 36.925781 252.375 C 36.539062 252.445312 35.800781 253.605469 35.183594 253.851562 C 32.292969 255.003906 29.714844 253 27.609375 251.417969 C 26.390625 250.5 25.121094 249.5 24.394531 248.125 C 23.6875 246.792969 24.191406 244.472656 24.183594 242.933594 C 24.140625 235.1875 24.089844 227.4375 24.050781 219.6875 C 23.972656 203.664062 23.898438 187.640625 23.816406 171.617188 C 23.777344 164.585938 24.402344 157.144531 23.636719 150.148438 C 23.332031 147.382812 21.316406 143.011719 24.804688 141.585938 C 25.628906 141.246094 26.484375 140.816406 27.359375 140.632812 C 28.539062 140.382812 29.523438 141.074219 30.792969 140.941406 C 37.648438 140.230469 44.753906 136.761719 51.242188 134.578125 C 58.433594 132.15625 65.621094 129.722656 72.835938 127.367188 C 76.550781 126.15625 80.269531 124.941406 83.992188 123.746094 C 85.828125 123.15625 92.605469 120.023438 93.851562 121.269531 "/></g><path style=" stroke:none;fill-rule:nonzero;fill:#ffffff;fill-opacity:1;" d="M 92.773438 123.035156 C 79.742188 127.929688 66.332031 132.167969 53.429688 137.285156 C 47.667969 139.570312 41.660156 141.273438 35.84375 143.453125 C 34.535156 143.941406 33.097656 144.667969 31.871094 144.597656 C 30.824219 144.539062 30.066406 143.96875 28.90625 144.199219 C 27.914062 144.398438 27.667969 144.816406 28.378906 145.632812 C 28.957031 146.296875 29.167969 145.453125 29.367188 145.566406 L 29.367188 145.214844 C 30.148438 146.847656 31.792969 147.660156 33.472656 148.078125 C 31.101562 147.296875 27.390625 146.050781 26.710938 143.261719 C 26.152344 140.960938 28.710938 142.402344 29.230469 142.304688 C 35.679688 141.085938 41.441406 138.566406 47.617188 136.511719 C 54.738281 134.144531 61.847656 131.734375 68.988281 129.417969 C 75.644531 127.257812 82.523438 125.769531 89.109375 123.449219 C 90.011719 123.132812 93.070312 121.257812 92.773438 123.035156 "/><path style=" stroke:none;fill-rule:nonzero;fill:#ffffff;fill-opacity:1;" d="M 92.949219 126.09375 C 83.707031 129.90625 74.234375 132.984375 64.738281 136.089844 C 60.214844 137.570312 55.558594 138.609375 51.035156 140.148438 C 47.125 141.480469 41.367188 144.621094 37.203125 144.136719 C 47.191406 140.605469 57.207031 137.15625 67.195312 133.628906 C 75.710938 130.621094 84.054688 126.636719 92.773438 124.308594 C 92.664062 124.957031 92.511719 125.605469 92.949219 126.09375 "/><path style=" stroke:none;fill-rule:nonzero;fill:#ffffff;fill-opacity:1;" d="M 96.679688 126.449219 C 96.804688 126.820312 96.613281 127.019531 96.878906 127.351562 C 78.707031 133.113281 60.734375 139.644531 42.183594 144.136719 C 52.050781 140.820312 62.042969 137.9375 71.988281 134.871094 C 76.941406 133.34375 81.816406 131.617188 86.675781 129.820312 C 89.898438 128.625 93.292969 126.902344 96.679688 126.449219 "/><path style=" stroke:none;fill-rule:nonzero;fill:#ffffff;fill-opacity:1;" d="M 100.082031 128.230469 C 101.011719 130.203125 96.417969 130.5 95.035156 130.832031 C 92.636719 131.402344 90.222656 131.921875 87.8125 132.445312 C 83.1875 133.449219 78.601562 134.558594 74.066406 135.917969 C 78.320312 134.558594 82.554688 133.132812 86.796875 131.738281 C 88.652344 131.125 99.226562 126.824219 100.082031 128.230469 "/><path style=" stroke:none;fill-rule:nonzero;fill:#ffffff;fill-opacity:1;" d="M 104.347656 131.976562 C 104.648438 132.035156 104.945312 132.09375 105.246094 132.152344 C 83.789062 137.414062 61.863281 140.566406 40.414062 145.917969 C 52.496094 142.09375 64.96875 139.660156 77.121094 136.21875 C 82.542969 134.683594 88.015625 133.632812 93.480469 132.261719 C 96.222656 131.574219 98.957031 130.828125 101.703125 130.160156 C 104.074219 129.585938 102.652344 131.28125 104.347656 131.976562 "/><path style=" stroke:none;fill-rule:nonzero;fill:#ffffff;fill-opacity:1;" d="M 106.121094 133.230469 C 106.140625 135.109375 85.394531 137.375 82.628906 137.703125 C 86.625 137.109375 90.613281 136.441406 94.570312 135.617188 C 96.636719 135.1875 98.703125 134.765625 100.761719 134.292969 C 102.179688 133.96875 104.847656 132.859375 106.121094 133.230469 "/><path style=" stroke:none;fill-rule:nonzero;fill:#ffffff;fill-opacity:1;" d="M 107.726562 135.722656 C 97.105469 137.265625 86.71875 139.875 76.179688 141.839844 C 66.625 143.617188 56.84375 144.8125 47.171875 145.742188 C 57.257812 143.601562 67.351562 141.511719 77.507812 139.726562 C 87.621094 137.953125 97.839844 136.761719 107.921875 134.839844 C 107.910156 134.925781 107.730469 135.714844 107.726562 135.722656 "/><path style=" stroke:none;fill-rule:nonzero;fill:#ffffff;fill-opacity:1;" d="M 111.285156 136.449219 C 111.847656 167.464844 109.957031 198.550781 109.882812 229.578125 C 109.882812 230.886719 109.898438 232.1875 109.9375 233.492188 C 109.992188 235.335938 110.882812 237.265625 108.902344 237.636719 C 105.019531 238.367188 101.144531 239.113281 97.265625 239.867188 C 90.636719 241.164062 84.023438 242.574219 77.40625 243.941406 C 63.929688 246.722656 50.355469 248.808594 36.855469 251.363281 C 36.527344 220.429688 36.976562 189.464844 37.160156 158.53125 C 37.164062 157.886719 36.941406 148.285156 37.296875 148.246094 C 41.109375 147.820312 44.925781 147.382812 48.734375 146.929688 C 55.324219 146.144531 61.902344 145.167969 68.449219 144.089844 C 82.636719 141.75 96.988281 137.535156 111.285156 136.449219 "/><path style=" stroke:none;fill-rule:nonzero;fill:#ffffff;fill-opacity:1;" d="M 29.539062 147.878906 C 30.269531 147.921875 30.5625 148.382812 31.1875 148.605469 C 32.652344 149.136719 34.167969 149.085938 35.777344 149.15625 C 34.347656 151.917969 30.402344 149.652344 28.640625 148.605469 C 27.410156 147.878906 21.726562 143.683594 25.457031 142.351562 C 25.054688 144.902344 27.765625 146.707031 29.539062 147.878906 "/><path style=" stroke:none;fill-rule:nonzero;fill:#ffffff;fill-opacity:1;" d="M 33.449219 146.09375 C 33.25 146.011719 33.078125 145.988281 32.945312 145.742188 C 33.890625 145.324219 34.832031 144.90625 35.777344 144.488281 C 36.253906 145.917969 34.40625 145.902344 33.449219 146.09375 "/><path style=" stroke:none;fill-rule:nonzero;fill:#ffffff;fill-opacity:1;" d="M 38.960938 146.09375 C 38.015625 146.21875 37.070312 146.34375 36.128906 146.46875 C 36.964844 145.902344 38.070312 146.136719 38.960938 146.09375 "/><path style=" stroke:none;fill-rule:nonzero;fill:#ffffff;fill-opacity:1;" d="M 34.351562 151.648438 C 34.769531 151.402344 35.320312 151.25 35.777344 151.097656 C 35.59375 184.160156 35.414062 217.226562 35.234375 250.289062 C 35.226562 251.765625 35.839844 252.484375 34.042969 252.839844 C 31.382812 253.363281 29.03125 251.191406 27.136719 249.644531 C 24.222656 247.261719 25.234375 242.820312 25.203125 239.347656 C 25.171875 235.234375 25.140625 231.117188 25.105469 227.003906 C 24.988281 212.234375 24.875 197.460938 24.769531 182.691406 C 24.71875 175.445312 24.671875 168.203125 24.625 160.960938 C 24.59375 156.34375 25.070312 151.214844 24.207031 146.644531 C 26.867188 149.425781 30.332031 151.863281 34.351562 151.644531 "/><path style=" stroke:none;fill-rule:nonzero;fill:#ffffff;fill-opacity:1;" d="M 35.601562 147.703125 C 35.359375 147.886719 35.117188 148.070312 34.875 148.253906 C 35.132812 147.4375 34.898438 147.832031 34.523438 147 C 34.699219 146.882812 34.875 146.765625 35.050781 146.644531 C 35.15625 147.078125 35.476562 147.359375 35.601562 147.703125 "/><path style=" stroke:none;fill-rule:nonzero;fill:#ffffff;fill-opacity:1;" d="M 76.199219 163.253906 C 76.648438 163.519531 76.476562 165.597656 76.21875 166.46875 C 75.613281 165.085938 74.609375 163.617188 72.992188 163.429688 C 74.59375 163.089844 75.070312 162.175781 75.144531 160.589844 C 75.476562 161.519531 74.773438 163.429688 76.199219 163.253906 "/><path style=" stroke:none;fill-rule:nonzero;fill:#ffffff;fill-opacity:1;" d="M 71.386719 161.449219 C 71.078125 162.074219 71.398438 162.714844 71.757812 163.253906 C 71.222656 163.03125 69.859375 162.359375 69.804688 161.710938 C 69.714844 160.582031 70.949219 160.949219 71.386719 161.449219 "/><path style=" stroke:none;fill-rule:nonzero;fill:#ffffff;fill-opacity:1;" d="M 99.359375 185.589844 C 99.484375 186.9375 98.28125 188.066406 98.460938 189.710938 C 98.0625 188.914062 97.128906 188.089844 96.175781 188.453125 C 94.75 189 95.101562 191.429688 95.101562 192.574219 C 94.640625 191.511719 93.136719 187.589844 94.023438 186.496094 C 94.59375 185.792969 98.453125 185.617188 99.359375 185.589844 "/><path style=" stroke:none;fill-rule:nonzero;fill:#ffffff;fill-opacity:1;" d="M 103.089844 191.847656 C 103.097656 192.03125 103.105469 192.214844 103.113281 192.398438 C 102.773438 191.53125 102.398438 190.699219 101.871094 189.929688 C 101.273438 189.054688 99.855469 188.929688 99.929688 188.253906 C 100.097656 186.679688 103.238281 190.429688 103.089844 191.847656 "/><path style=" stroke:none;fill-rule:nonzero;fill:#ffffff;fill-opacity:1;" d="M 85.816406 195.0625 C 84.636719 195.402344 83.433594 195.941406 82.457031 194.898438 C 81.898438 194.300781 80.011719 194.472656 79.855469 194.160156 C 79.464844 193.378906 78.667969 190.664062 79.40625 189.886719 C 79.753906 189.515625 82.234375 189.394531 82.851562 189.226562 C 83.96875 188.921875 85.0625 188.558594 86.1875 188.277344 C 86.058594 190.546875 85.714844 192.785156 85.816406 195.0625 "/><path style=" stroke:none;fill-rule:nonzero;fill:#ffffff;fill-opacity:1;" d="M 99.007812 191.140625 C 99.824219 192.839844 100.320312 194.632812 100.609375 196.492188 C 99.90625 195.074219 98.546875 191.109375 96.351562 192.21875 C 96.410156 191.382812 96.46875 190.546875 96.527344 189.707031 C 97.632812 189.910156 97.75 192.21875 99.007812 191.140625 "/><path style=" stroke:none;fill-rule:nonzero;fill:#ffffff;fill-opacity:1;" d="M 70.488281 191.492188 C 71.089844 194.035156 68.035156 195.289062 69.085938 197.75 C 64.546875 198.855469 66.90625 202.886719 65.527344 205.789062 C 65.496094 204.902344 65.269531 204.046875 65.21875 203.167969 C 65.160156 202.175781 65.703125 201.261719 65.703125 200.4375 C 65.699219 199.308594 64.988281 197.863281 64.957031 196.582031 C 64.921875 195.214844 65.070312 193.898438 64.648438 192.570312 C 66.578125 192.199219 68.628906 191.847656 70.488281 191.492188 "/><path style=" stroke:none;fill-rule:nonzero;fill:#ffffff;fill-opacity:1;" d="M 94.90625 194.160156 C 96.367188 193.503906 97.605469 197.644531 97.410156 199.007812 C 96.355469 198.207031 96.15625 196.847656 95.332031 195.878906 C 94.941406 195.414062 93.644531 195.308594 93.476562 195.0625 C 93.148438 194.578125 93.476562 192.839844 93.476562 192.222656 C 94.136719 192.765625 94.265625 193.734375 94.90625 194.160156 "/><path style=" stroke:none;fill-rule:nonzero;fill:#ffffff;fill-opacity:1;" d="M 92.773438 196.316406 C 93.023438 198.3125 93.832031 200.191406 94.023438 202.195312 C 93.046875 201.734375 91.636719 198.878906 90.292969 200.082031 C 89.230469 201.03125 91.128906 204.53125 90.996094 205.785156 C 89.390625 203.976562 88.855469 201.351562 88.6875 199.003906 C 91.625 201.65625 90.84375 197.121094 90.820312 195.414062 C 91.175781 196.195312 91.953125 196.757812 92.773438 196.316406 "/><path style=" stroke:none;fill-rule:nonzero;fill:#ffffff;fill-opacity:1;" d="M 82.003906 196.96875 C 80.757812 196.847656 78.324219 196.808594 79.304688 198.886719 C 79.917969 200.191406 80.140625 197.191406 81.652344 198.226562 C 81.316406 198.976562 80.761719 199.738281 79.972656 200.042969 C 78.054688 200.785156 78.449219 197.660156 78.449219 196.773438 C 79.039062 197.464844 80.636719 195.429688 82.003906 196.96875 "/><path style=" stroke:none;fill-rule:nonzero;fill:#ffffff;fill-opacity:1;" d="M 70.0625 198.554688 C 69.988281 198.867188 69.761719 199.195312 69.554688 199.457031 C 68.074219 197.835938 66.808594 202.011719 67.40625 203.203125 C 67.828125 204.046875 70.902344 206.121094 71.511719 205.539062 C 71.695312 205.726562 72.09375 206.203125 72.214844 206.441406 C 71.027344 206.382812 69.84375 206.324219 68.65625 206.265625 C 70.859375 206.089844 67.34375 204.542969 66.945312 203.773438 C 65.828125 201.632812 67.371094 197.917969 70.0625 198.554688 "/><path style=" stroke:none;fill-rule:nonzero;fill:#ffffff;fill-opacity:1;" d="M 63.828125 208.574219 C 62.996094 208.964844 62.140625 208.777344 61.289062 209.027344 C 60.125 209.371094 60.320312 210.285156 61.511719 210.21875 C 61.894531 210.195312 64.007812 209.5 64.03125 209.984375 C 64.140625 212.175781 64.722656 213.09375 62.816406 214.050781 C 62.019531 214.449219 60.730469 215.207031 60.007812 214.808594 C 59.144531 214.335938 59.554688 213.042969 59.148438 212.78125 C 56.65625 211.1875 58.445312 214.605469 58.6875 215.183594 C 57.980469 215.445312 57.273438 215.375 56.558594 215.152344 C 55.910156 214.949219 55.542969 213.960938 55.441406 213.929688 C 54.050781 213.480469 53.433594 216.492188 51.554688 216.792969 C 51.929688 215.804688 52.40625 214.765625 52.542969 213.707031 C 52.683594 212.605469 51.898438 211.691406 51.925781 210.890625 C 51.960938 209.972656 53.320312 208.183594 54.035156 207.671875 C 53.859375 207.496094 53.683594 207.320312 53.507812 207.144531 C 54.007812 206.757812 54.519531 206.441406 55.109375 206.261719 C 54.523438 206.742188 54.457031 207.988281 55.351562 208.222656 C 55.894531 208.367188 55.96875 207.273438 56.65625 207.222656 C 57.222656 207.179688 57.433594 206.683594 57.898438 206.484375 C 58.871094 206.066406 61.289062 204.578125 60.839844 206.835938 C 60.585938 208.105469 59.234375 210.023438 57.789062 209.65625 C 60.078125 209.441406 58.492188 207.59375 57.261719 208.398438 C 55.765625 209.378906 57.964844 210.269531 57.085938 211.085938 C 56.554688 210.160156 54.1875 208.484375 54.933594 210.535156 C 55.007812 210.742188 56.5 212.160156 56.777344 212.253906 C 57.601562 212.53125 58.8125 211.425781 58.160156 210.710938 C 60.320312 210.785156 63.441406 206.710938 61.421875 204.996094 C 60.25 204 58.933594 204.613281 57.808594 205.289062 C 54.941406 207.007812 56.703125 205.609375 56.734375 204.457031 C 58.789062 204.332031 59.46875 202.183594 61.125 201.351562 C 61.929688 200.949219 62.835938 201.164062 63.671875 201.066406 C 63.730469 203.550781 63.898438 206.128906 63.828125 208.574219 "/><path style=" stroke:none;fill-rule:nonzero;fill:#ffffff;fill-opacity:1;" d="M 83.257812 204.808594 C 82.21875 206.148438 79.902344 205.871094 78.097656 206.085938 C 78.523438 205.863281 78.746094 205.125 79.039062 204.984375 C 79.480469 204.773438 79.597656 205.050781 80.203125 204.917969 C 81.101562 204.722656 82.777344 204.210938 83.257812 204.808594 "/><path style=" stroke:none;fill-rule:nonzero;fill:#ffffff;fill-opacity:1;" d="M 99.710938 212.019531 C 97.972656 212.738281 96.0625 213.003906 94.199219 213.121094 C 94.328125 211.269531 93.574219 208.140625 95.628906 207.042969 C 96.886719 206.371094 98.5625 206.976562 99.886719 206.160156 C 100.070312 208.101562 99.613281 210.148438 99.710938 212.019531 "/><path style=" stroke:none;fill-rule:nonzero;fill:#ffffff;fill-opacity:1;" d="M 91.171875 213.628906 C 90.578125 213.695312 89.984375 213.761719 89.390625 213.828125 C 90.636719 212.457031 91.878906 211.082031 93.125 209.710938 C 93.035156 211.054688 93.691406 214.597656 91.171875 213.628906 "/><path style=" stroke:none;fill-rule:nonzero;fill:#000000;fill-opacity:1;" d="M 55.535156 212.921875 C 54.761719 213.21875 52.167969 212.925781 53.757812 212.242188 C 54.351562 211.984375 55.503906 212.453125 55.535156 212.921875 "/><path style=" stroke:none;fill-rule:nonzero;fill:#ffffff;fill-opacity:1;" d="M 99.535156 219.007812 C 97.734375 219.429688 95.863281 219.566406 94.023438 219.734375 C 94.023438 217.769531 92.996094 214.425781 95.265625 214.226562 C 96.699219 214.101562 98.351562 213.382812 99.710938 213.476562 C 99.652344 215.300781 99.59375 217.261719 99.535156 219.007812 "/><path style=" stroke:none;fill-rule:nonzero;fill:#ffffff;fill-opacity:1;" d="M 57.492188 218.628906 C 57.113281 218.625 56.808594 218.582031 56.832031 219.15625 C 56.875 220.253906 59.171875 219.824219 59.59375 219.800781 C 61.308594 219.695312 60.914062 221.296875 61.257812 222.824219 C 61.539062 224.082031 62.023438 225.578125 61.925781 226.625 C 61.828125 227.699219 62.5625 227.660156 60.941406 228.085938 C 59.503906 228.460938 57.953125 228.472656 56.476562 228.472656 C 53.421875 228.472656 50.3125 227.914062 47.347656 227.21875 C 48.242188 225.132812 49.132812 223.046875 50.027344 220.964844 C 51.625 223.484375 54.816406 220.097656 52.179688 218.121094 C 53.285156 217.917969 53.613281 217.050781 54.484375 216.511719 C 55.898438 215.640625 55.636719 216.285156 56.988281 216.511719 C 59.488281 216.933594 62.640625 216 64.648438 214.53125 C 62.792969 216.511719 60.625 219.707031 57.492188 218.628906 "/><path style=" stroke:none;fill-rule:nonzero;fill:#ffffff;fill-opacity:1;" d="M 92.949219 219.882812 C 91.113281 220.246094 89.273438 220.605469 87.4375 220.964844 C 87.4375 218.988281 86.632812 216.269531 88.449219 215.300781 C 89.71875 214.625 91.574219 214.996094 92.949219 214.53125 L 92.949219 219.882812 "/><path style=" stroke:none;fill-rule:nonzero;fill:#ffffff;fill-opacity:1;" d="M 72.5625 216.96875 C 71.503906 218.957031 69.222656 219.6875 73.113281 220.007812 C 72.773438 221.410156 73.210938 222.972656 71.683594 223.777344 C 71.160156 224.050781 69.734375 224.039062 69.050781 224.261719 C 68.125 224.554688 67.3125 224.933594 66.328125 225.03125 L 66.328125 221.191406 C 66.328125 219.582031 66.007812 218.683594 66.988281 218.003906 C 68.101562 217.230469 71.230469 216.804688 72.5625 216.96875 "/><path style=" stroke:none;fill-rule:nonzero;fill:#ffffff;fill-opacity:1;" d="M 81.199219 222.042969 C 81.148438 220.578125 85.019531 218.089844 86.183594 217.042969 C 86.183594 217.578125 86.40625 221.097656 86.066406 221.160156 C 84.445312 221.453125 82.824219 221.75 81.199219 222.042969 "/><path style=" stroke:none;fill-rule:nonzero;fill:#ffffff;fill-opacity:1;" d="M 65.078125 226.617188 C 64.585938 226.199219 64.207031 226.613281 63.539062 226.882812 C 62.535156 227.285156 62.574219 225.171875 62.398438 224.449219 C 62 222.789062 62.183594 219.929688 61.519531 218.953125 C 62.628906 218.429688 63.910156 218.429688 65.101562 218.226562 C 65.101562 221.007812 65.195312 223.878906 65.078125 226.617188 "/><path style=" stroke:none;fill-rule:nonzero;fill:#ffffff;fill-opacity:1;" d="M 93.851562 227.046875 C 93.882812 225.898438 93.3125 221.75 94.023438 220.96875 C 95.046875 219.839844 98.289062 221.097656 99.535156 219.910156 L 99.535156 226.246094 C 99.535156 226.542969 94.496094 226.964844 93.851562 227.046875 "/><path style=" stroke:none;fill-rule:nonzero;fill:#ffffff;fill-opacity:1;" d="M 92.773438 227.222656 C 90.933594 227.597656 89.089844 227.960938 87.242188 228.300781 C 87.242188 226.683594 86.367188 222.40625 88.085938 222.058594 C 89.660156 221.738281 91.175781 221.195312 92.773438 220.96875 L 92.773438 227.222656 "/><path style=" stroke:none;fill-rule:nonzero;fill:#ffffff;fill-opacity:1;" d="M 85.988281 222.394531 C 85.988281 223.464844 86.644531 227.921875 85.988281 228.652344 C 85.550781 229.136719 81.640625 229.421875 80.828125 229.554688 C 80.777344 228.519531 80.433594 223.800781 81.023438 223.121094 C 81.578125 222.488281 85.039062 222.726562 85.988281 222.394531 "/><path style=" stroke:none;fill-rule:nonzero;fill:#ffffff;fill-opacity:1;" d="M 79.527344 229.484375 C 77.976562 229.800781 76.503906 230.410156 74.894531 230.210938 C 75.121094 227.871094 75.953125 223.222656 79.328125 223.226562 C 79.394531 225.3125 79.460938 227.398438 79.527344 229.484375 "/><path style=" stroke:none;fill-rule:nonzero;fill:#ffffff;fill-opacity:1;" d="M 70.609375 225.183594 C 69.667969 226.503906 68.707031 229.21875 67.40625 229.832031 C 68.046875 230.136719 67.769531 230.886719 67.582031 231.640625 C 67.003906 230.804688 65.847656 230.019531 67.054688 229.128906 C 66.15625 228.429688 66.679688 227.242188 66.328125 226.265625 C 67.789062 226.070312 69.199219 225.199219 70.609375 225.183594 "/><path style=" stroke:none;fill-rule:nonzero;fill:#ffffff;fill-opacity:1;" d="M 64.726562 229.304688 C 63.796875 229.496094 63.097656 229.230469 63.355469 228.28125 C 63.519531 227.675781 64.859375 227.734375 65.277344 227.148438 C 65.324219 227.921875 65.476562 228.882812 64.726562 229.304688 "/><path style=" stroke:none;fill-rule:nonzero;fill:#ffffff;fill-opacity:1;" d="M 99.535156 232.574219 C 97.640625 232.875 95.746094 233.175781 93.847656 233.476562 L 93.847656 228.421875 C 93.847656 228.089844 96.410156 227.859375 96.8125 227.816406 C 97.148438 227.78125 99.535156 227.507812 99.535156 227.886719 L 99.535156 232.574219 "/><path style=" stroke:none;fill-rule:nonzero;fill:#ffffff;fill-opacity:1;" d="M 71.488281 228.050781 C 71.953125 229.476562 70.496094 231.984375 69.3125 231.488281 C 69.660156 230.613281 70.945312 228.128906 71.488281 228.050781 "/><path style=" stroke:none;fill-rule:nonzero;fill:#ffffff;fill-opacity:1;" d="M 92.773438 233.652344 C 90.871094 234.011719 88.96875 234.375 87.066406 234.734375 C 87.058594 234.089844 87.222656 233.617188 87.613281 233.300781 C 86.699219 232.628906 88.222656 231.453125 87.242188 231.339844 C 87.242188 229.183594 87.308594 229.488281 89.230469 229.183594 C 90.417969 228.992188 91.59375 228.710938 92.773438 228.476562 C 92.773438 230.203125 92.773438 231.929688 92.773438 233.652344 "/><path style=" stroke:none;fill-rule:nonzero;fill:#ffffff;fill-opacity:1;" d="M 53.15625 229.128906 C 53.382812 230.542969 51.039062 230.742188 50.082031 231.332031 C 47.921875 232.664062 47.046875 233.9375 47.273438 236.464844 C 46.03125 236.46875 44.753906 236.320312 43.539062 236.640625 L 43.539062 232.085938 C 43.539062 230.269531 43.285156 230.371094 44.898438 230.097656 C 45.753906 229.957031 49.015625 228.863281 48.90625 230.066406 C 48.789062 231.363281 50.125 232.230469 50.125 230.726562 C 50.125 228.375 50.558594 228.785156 53.15625 229.128906 "/><path style=" stroke:none;fill-rule:nonzero;fill:#ffffff;fill-opacity:1;" d="M 86.1875 234.65625 C 84.476562 234.949219 82.761719 235.265625 81.027344 235.382812 L 81.027344 234.832031 C 81.398438 234.867188 81.476562 234.742188 81.730469 234.65625 C 80.832031 234.320312 80.339844 231.320312 81.027344 230.539062 C 81.542969 229.953125 85.011719 229.53125 85.992188 229.480469 C 86.058594 231.207031 85.855469 232.953125 86.1875 234.65625 "/><path style=" stroke:none;fill-rule:nonzero;fill:#ffffff;fill-opacity:1;" d="M 57.964844 233.402344 C 58.800781 233.507812 61.445312 234.386719 61.257812 232.9375 C 61.050781 231.378906 57.378906 232.300781 58.382812 230.605469 C 59.382812 228.914062 64.296875 230.304688 65.515625 231.308594 C 67.75 233.144531 65.984375 234.535156 64.363281 235.945312 C 61.539062 238.398438 52.558594 239.636719 49.445312 237.257812 C 46.398438 234.929688 50.3125 231.792969 52.804688 231.464844 C 52.949219 232.988281 52.535156 234.921875 54.957031 234.769531 C 57.394531 234.613281 57.042969 232.074219 54.40625 232.34375 C 54.941406 231.507812 55.476562 230.671875 56.007812 229.832031 C 57.316406 230.710938 56.222656 232.976562 57.964844 233.402344 "/><path style=" stroke:none;fill-rule:nonzero;fill:#ffffff;fill-opacity:1;" d="M 79.578125 235.738281 C 78.003906 235.773438 76.539062 236.449219 74.964844 236.464844 C 74.960938 236.230469 75.238281 234.902344 75.230469 234.886719 C 74.847656 234.363281 74.839844 233.332031 74.964844 232.71875 C 75.222656 231.4375 75.101562 231.667969 76.511719 231.398438 C 77.539062 231.199219 78.5625 230.992188 79.578125 230.734375 L 79.578125 235.738281 "/><path style=" stroke:none;fill-rule:nonzero;fill:#ffffff;fill-opacity:1;" d="M 66.503906 237.320312 C 66.109375 238.675781 60.691406 238.875 59.214844 239.480469 L 59.214844 239.128906 C 60.953125 238.648438 62.671875 238.074219 64.277344 237.242188 C 65.695312 236.507812 65.746094 236.136719 66.503906 237.320312 "/><path style=" stroke:none;fill-rule:nonzero;fill:#ffffff;fill-opacity:1;" d="M 49.246094 238.578125 C 49.257812 239.179688 48.90625 241.109375 49.597656 241.460938 C 50.871094 242.109375 50.488281 239.644531 50.5 239.128906 C 52.859375 239.921875 55.589844 239.570312 57.984375 239.128906 C 56.34375 240.375 54.210938 240.445312 52.277344 240.910156 C 49.304688 241.628906 46.382812 242.371094 43.363281 242.894531 C 43.429688 241.398438 43.414062 239.855469 43.933594 238.753906 C 44.203125 238.183594 44.164062 238.429688 44.089844 237.894531 C 45.808594 237.097656 47.855469 237.476562 49.246094 238.578125 "/><path style=" stroke:none;fill-rule:nonzero;fill:#ffffff;fill-opacity:1;" d="M 51.902344 210.890625 C 52.40625 209.800781 52.863281 208.316406 53.945312 207.71875 C 53.800781 207.527344 53.652344 207.335938 53.507812 207.144531 C 53.976562 206.640625 54.484375 206.308594 55.109375 206.265625 C 54.605469 206.640625 54.648438 207.371094 54.714844 207.851562 C 54.628906 207.777344 54.804688 207.78125 54.78125 207.742188 C 55.546875 208.71875 57.527344 206.234375 58.734375 205.78125 C 62.726562 204.269531 60.261719 210.273438 57.789062 209.65625 C 60.007812 209.09375 58.234375 207.585938 57.152344 208.445312 C 56.042969 209.328125 57.429688 209.863281 57.347656 210.363281 C 57.207031 211.234375 57.226562 211.097656 56.339844 210.207031 C 55.605469 209.476562 54.164062 209.296875 54.933594 210.539062 C 55.855469 210.949219 56.449219 212.761719 57.613281 212.035156 C 57.65625 212.554688 57.507812 213.191406 57.679688 213.667969 C 57.828125 214.078125 58.648438 214.28125 58.621094 214.789062 C 58.554688 216.28125 56.109375 214.878906 55.484375 214.546875 C 54.808594 214.191406 55.984375 213.210938 54.539062 213.996094 C 54.171875 214.199219 53.910156 215.136719 53.640625 215.472656 C 53.089844 216.152344 52.535156 216.820312 51.554688 216.796875 C 52.277344 214.929688 53.253906 212.6875 51.902344 210.890625 "/><g style="fill:#ffffff;fill-opacity:1;"><g transform="translate(127.592691, 191.910823)"><path style="stroke:none" d="M 15.015625 -41.125 C 16.234375 -41.476562 17.195312 -41.066406 17.90625 -39.890625 L 18.828125 -38.34375 C 19.460938 -37.269531 19.207031 -36.570312 18.0625 -36.25 L 13.5625 -35.328125 C 12.738281 -35.191406 12.363281 -34.851562 12.4375 -34.3125 C 12.507812 -33.738281 12.921875 -33.453125 13.671875 -33.453125 L 18.28125 -33.453125 C 19.394531 -33.453125 19.953125 -32.914062 19.953125 -31.84375 L 19.953125 -30.671875 C 19.953125 -29.566406 19.414062 -29.015625 18.34375 -29.015625 L 14 -29.015625 C 13.101562 -29.015625 12.65625 -28.78125 12.65625 -28.3125 C 12.65625 -27.769531 13.082031 -27.5 13.9375 -27.5 L 18.28125 -27.5 C 19.394531 -27.5 19.953125 -26.960938 19.953125 -25.890625 L 19.953125 -24.71875 C 19.953125 -23.613281 19.414062 -23.0625 18.34375 -23.0625 L 14.109375 -23.0625 C 13.210938 -23.0625 12.765625 -22.753906 12.765625 -22.140625 C 12.835938 -21.535156 13.300781 -21.234375 14.15625 -21.234375 L 21.171875 -21.234375 C 22.066406 -21.234375 22.175781 -21.785156 21.5 -22.890625 C 20.925781 -23.929688 21.175781 -24.71875 22.25 -25.25 C 23.320312 -25.863281 23.394531 -26.472656 22.46875 -27.078125 C 21.5 -27.648438 21.351562 -28.347656 22.03125 -29.171875 C 22.644531 -30.023438 22.894531 -30.488281 22.78125 -30.5625 C 22.601562 -30.53125 22.195312 -31.066406 21.5625 -32.171875 L 21.125 -32.875 C 20.476562 -34.007812 20.640625 -34.773438 21.609375 -35.171875 C 22.640625 -35.671875 22.710938 -36.207031 21.828125 -36.78125 C 20.890625 -37.320312 20.816406 -38.109375 21.609375 -39.140625 L 22.09375 -39.671875 C 22.988281 -40.679688 23.972656 -40.898438 25.046875 -40.328125 L 26.4375 -39.515625 C 27.289062 -38.984375 28.253906 -39.128906 29.328125 -39.953125 C 30.296875 -40.804688 31.332031 -40.785156 32.4375 -39.890625 L 33.078125 -39.359375 C 34.015625 -38.566406 34.070312 -37.78125 33.25 -37 C 32.382812 -36.25 32.363281 -35.566406 33.1875 -34.953125 C 34.007812 -34.242188 34.03125 -33.457031 33.25 -32.59375 C 32.53125 -31.738281 32.546875 -30.863281 33.296875 -29.96875 C 34.117188 -29.039062 34.15625 -28.1875 33.40625 -27.40625 C 32.613281 -26.613281 32.5625 -25.929688 33.25 -25.359375 C 33.882812 -24.753906 33.722656 -23.894531 32.765625 -22.78125 C 31.898438 -21.75 31.898438 -21.234375 32.765625 -21.234375 L 40.15625 -21.234375 C 41.019531 -21.234375 41.488281 -21.519531 41.5625 -22.09375 C 41.5625 -22.738281 41.128906 -23.0625 40.265625 -23.0625 L 37 -23.0625 C 35.882812 -23.0625 35.328125 -23.597656 35.328125 -24.671875 L 35.328125 -25.84375 C 35.328125 -26.945312 35.863281 -27.5 36.9375 -27.5 L 40.421875 -27.5 C 41.316406 -27.5 41.765625 -27.785156 41.765625 -28.359375 C 41.765625 -28.972656 41.335938 -29.28125 40.484375 -29.28125 L 36.78125 -29.28125 C 35.675781 -29.28125 35.125 -29.816406 35.125 -30.890625 L 35.125 -32.125 C 35.125 -33.226562 35.660156 -33.78125 36.734375 -33.78125 L 40.640625 -33.78125 C 41.503906 -33.78125 41.988281 -34.046875 42.09375 -34.578125 C 42.050781 -35.148438 41.601562 -35.4375 40.75 -35.4375 L 37 -35.4375 C 35.882812 -35.4375 35.328125 -35.972656 35.328125 -37.046875 L 35.328125 -38.984375 C 35.328125 -40.085938 35.863281 -40.640625 36.9375 -40.640625 L 46.109375 -40.640625 C 47.179688 -40.640625 47.71875 -40.101562 47.71875 -39.03125 C 47.46875 -33.53125 47.269531 -28.023438 47.125 -22.515625 C 47.125 -21.660156 47.554688 -21.234375 48.421875 -21.234375 L 49.703125 -21.234375 C 50.816406 -21.234375 51.375 -20.695312 51.375 -19.625 L 51.375 -13.140625 C 51.375 -12.023438 50.835938 -11.46875 49.765625 -11.46875 L 47.34375 -11.46875 C 46.238281 -11.46875 45.6875 -12.003906 45.6875 -13.078125 L 45.6875 -14.859375 C 45.6875 -15.742188 45.253906 -16.1875 44.390625 -16.1875 L 10.5625 -16.1875 C 9.664062 -16.1875 9.21875 -15.757812 9.21875 -14.90625 L 9.21875 -13.140625 C 9.21875 -12.023438 8.679688 -11.46875 7.609375 -11.46875 L 5.046875 -11.46875 C 3.929688 -11.46875 3.375 -12.003906 3.375 -13.078125 L 3.375 -19.578125 C 3.375 -20.679688 3.910156 -21.234375 4.984375 -21.234375 L 5.796875 -21.234375 C 6.648438 -21.234375 7.078125 -21.660156 7.078125 -22.515625 C 6.828125 -27.773438 6.628906 -33.03125 6.484375 -38.28125 C 6.453125 -39.25 7.023438 -39.785156 8.203125 -39.890625 C 10.378906 -40.109375 12.648438 -40.519531 15.015625 -41.125 Z M 28.953125 -31.90625 C 28.054688 -32.613281 27.09375 -32.703125 26.0625 -32.171875 C 25.019531 -31.566406 25.054688 -30.941406 26.171875 -30.296875 L 27.03125 -29.765625 C 27.882812 -29.222656 28.648438 -29.238281 29.328125 -29.8125 C 29.972656 -30.414062 29.847656 -31.113281 28.953125 -31.90625 Z M 29.109375 -22.203125 C 28.398438 -22.835938 27.488281 -22.835938 26.375 -22.203125 C 25.195312 -21.554688 25.164062 -21.234375 26.28125 -21.234375 L 28.796875 -21.234375 C 29.722656 -21.234375 29.828125 -21.554688 29.109375 -22.203125 Z M 11.53125 -12.4375 C 11.53125 -13.582031 12.03125 -14.15625 13.03125 -14.15625 L 41.875 -14.15625 C 42.976562 -14.15625 43.53125 -13.617188 43.53125 -12.546875 L 43.53125 -11.375 C 43.53125 -10.300781 43 -9.421875 41.9375 -8.734375 C 40.320312 -7.804688 38.710938 -6.953125 37.109375 -6.171875 C 35.859375 -5.523438 35.800781 -5.203125 36.9375 -5.203125 L 49.703125 -5.203125 C 50.816406 -5.203125 51.375 -4.664062 51.375 -3.59375 L 51.375 -1.765625 C 51.375 -0.660156 50.835938 -0.109375 49.765625 -0.109375 L 31.90625 -0.109375 C 31.007812 -0.109375 30.5625 0.316406 30.5625 1.171875 C 30.59375 2.210938 30.539062 3.253906 30.40625 4.296875 C 30.007812 6.679688 28.703125 7.945312 26.484375 8.09375 C 25.660156 8.3125 24.335938 8.382812 22.515625 8.3125 C 21.804688 8.207031 21.09375 8.15625 20.375 8.15625 C 19.082031 7.96875 18.347656 7.304688 18.171875 6.171875 L 17.640625 3.328125 C 17.492188 2.253906 17.957031 1.859375 19.03125 2.140625 C 21.28125 2.640625 23.050781 2.785156 24.34375 2.578125 C 24.488281 2.429688 24.597656 1.960938 24.671875 1.171875 C 24.671875 0.316406 24.238281 -0.109375 23.375 -0.109375 L 5.3125 -0.109375 C 4.195312 -0.109375 3.640625 -0.644531 3.640625 -1.71875 L 3.640625 -3.53125 C 3.640625 -4.644531 4.175781 -5.203125 5.25 -5.203125 L 23.328125 -5.203125 C 24.222656 -5.203125 24.671875 -5.679688 24.671875 -6.640625 C 24.671875 -7.609375 25.207031 -8.078125 26.28125 -8.046875 C 27.164062 -8.046875 28.054688 -7.988281 28.953125 -7.875 C 29.597656 -7.625 30.53125 -7.859375 31.75 -8.578125 C 33.03125 -9.179688 33.0625 -9.484375 31.84375 -9.484375 L 13.1875 -9.484375 C 12.082031 -9.484375 11.53125 -10.019531 11.53125 -11.09375 Z M 11.53125 -12.4375 "/></g></g><g style="fill:#ffffff;fill-opacity:1;"><g transform="translate(182.483313, 191.910823)"><path style="stroke:none" d="M 26.0625 -39.515625 C 26.0625 -40.660156 26.5625 -41.234375 27.5625 -41.234375 L 31.109375 -41.234375 C 32.210938 -41.234375 32.765625 -40.695312 32.765625 -39.625 L 32.765625 -34.375 C 32.765625 -33.476562 33.191406 -33.03125 34.046875 -33.03125 L 48.46875 -33.03125 C 49.582031 -33.03125 50.140625 -32.492188 50.140625 -31.421875 L 50.140625 -28.3125 C 50.140625 -27.207031 49.601562 -26.65625 48.53125 -26.65625 L 34.109375 -26.65625 C 33.210938 -26.65625 32.765625 -26.222656 32.765625 -25.359375 L 32.765625 -17.90625 C 32.765625 -17.007812 33.191406 -16.5625 34.046875 -16.5625 L 46.328125 -16.5625 C 47.441406 -16.5625 48 -16.023438 48 -14.953125 L 48 -11.578125 C 48 -10.472656 47.460938 -9.921875 46.390625 -9.921875 L 34.109375 -9.921875 C 33.210938 -9.921875 32.765625 -9.488281 32.765625 -8.625 L 32.765625 -0.265625 C 32.765625 0.628906 33.191406 1.078125 34.046875 1.078125 L 51 1.078125 C 52.101562 1.078125 52.65625 1.613281 52.65625 2.6875 L 52.65625 5.734375 C 52.65625 6.847656 52.117188 7.40625 51.046875 7.40625 L 6.109375 7.40625 C 5.003906 7.40625 4.453125 6.867188 4.453125 5.796875 L 4.453125 2.734375 C 4.453125 1.628906 4.988281 1.078125 6.0625 1.078125 L 24.71875 1.078125 C 25.613281 1.078125 26.0625 0.644531 26.0625 -0.21875 L 26.0625 -8.578125 C 26.0625 -9.472656 25.632812 -9.921875 24.78125 -9.921875 L 11.265625 -9.921875 C 10.160156 -9.921875 9.609375 -10.457031 9.609375 -11.53125 L 9.609375 -14.90625 C 9.609375 -16.007812 10.140625 -16.5625 11.203125 -16.5625 L 24.71875 -16.5625 C 25.613281 -16.5625 26.0625 -16.992188 26.0625 -17.859375 L 26.0625 -25.3125 C 26.0625 -26.207031 25.632812 -26.65625 24.78125 -26.65625 L 14.796875 -26.65625 C 13.941406 -26.65625 13.265625 -26.117188 12.765625 -25.046875 C 11.867188 -23.285156 10.90625 -21.476562 9.875 -19.625 C 9.125 -18.476562 8.226562 -18.300781 7.1875 -19.09375 L 5.046875 -20.640625 C 3.898438 -21.460938 3.664062 -22.394531 4.34375 -23.4375 C 6.988281 -27.863281 9.148438 -32.863281 10.828125 -38.4375 C 11.191406 -39.550781 11.890625 -39.945312 12.921875 -39.625 L 15.546875 -38.765625 C 16.804688 -38.367188 17.289062 -37.601562 17 -36.46875 L 16.359375 -34.3125 C 16.109375 -33.457031 16.410156 -33.03125 17.265625 -33.03125 L 24.71875 -33.03125 C 25.613281 -33.03125 26.0625 -33.457031 26.0625 -34.3125 Z M 26.0625 -39.515625 "/></g></g><g style="fill:#ffffff;fill-opacity:1;"><g transform="translate(246.303476, 197.249987)"><path style="stroke:none" d="M 19.46875 -23.765625 C 19.46875 -24.453125 19.769531 -24.796875 20.375 -24.796875 L 22.171875 -24.796875 C 22.835938 -24.796875 23.171875 -24.472656 23.171875 -23.828125 L 23.171875 -19.921875 C 23.171875 -19.390625 23.429688 -19.125 23.953125 -19.125 L 30.015625 -19.125 C 30.660156 -19.125 30.992188 -18.800781 31.015625 -18.15625 C 31.054688 -13.125 30.851562 -8.164062 30.40625 -3.28125 C 30.289062 -1.132812 30.0625 0.582031 29.71875 1.875 C 29.46875 2.84375 28.820312 3.601562 27.78125 4.15625 C 26.707031 4.71875 25.046875 4.773438 22.796875 4.328125 C 22.148438 4.171875 21.78125 3.769531 21.6875 3.125 L 21.5 1.25 C 21.414062 0.457031 21.71875 0.171875 22.40625 0.390625 C 23.945312 0.816406 25.109375 0.957031 25.890625 0.8125 C 26.316406 0.550781 26.613281 -0.125 26.78125 -1.21875 C 27.21875 -5.757812 27.445312 -10.253906 27.46875 -14.703125 C 27.46875 -15.242188 27.207031 -15.515625 26.6875 -15.515625 L 23.984375 -15.515625 C 23.441406 -15.515625 23.171875 -15.253906 23.171875 -14.734375 C 23.328125 -10.710938 22.757812 -6.691406 21.46875 -2.671875 C 20.71875 -0.367188 19.625 1.894531 18.1875 4.125 C 17.664062 4.789062 17.082031 4.878906 16.4375 4.390625 L 15.5 3.640625 C 14.707031 3.015625 14.351562 2.628906 14.4375 2.484375 C 14.550781 2.359375 14.285156 2.347656 13.640625 2.453125 C 10.429688 3.054688 6.882812 3.570312 3 4 C 2.351562 4.039062 1.972656 3.738281 1.859375 3.09375 L 1.609375 1.484375 C 1.484375 0.710938 1.625 0.316406 2.03125 0.296875 C 2.394531 0.222656 2.578125 -0.0664062 2.578125 -0.578125 L 2.578125 -22.640625 C 2.578125 -23.304688 2.898438 -23.640625 3.546875 -23.640625 L 13.828125 -23.640625 C 14.492188 -23.640625 14.828125 -23.316406 14.828125 -22.671875 L 14.828125 -2.09375 C 14.828125 -1.582031 14.976562 -1.335938 15.28125 -1.359375 C 15.601562 -1.421875 15.816406 -1.222656 15.921875 -0.765625 C 16.023438 -0.316406 16.25 -0.40625 16.59375 -1.03125 C 18.613281 -5.332031 19.570312 -9.890625 19.46875 -14.703125 C 19.46875 -15.242188 19.210938 -15.515625 18.703125 -15.515625 L 16.828125 -15.515625 C 16.160156 -15.515625 15.828125 -15.832031 15.828125 -16.46875 L 15.828125 -18.125 C 15.828125 -18.789062 16.148438 -19.125 16.796875 -19.125 L 18.65625 -19.125 C 19.195312 -19.125 19.46875 -19.378906 19.46875 -19.890625 Z M 11.09375 -19.21875 C 11.09375 -19.75 10.832031 -20.015625 10.3125 -20.015625 L 7.0625 -20.015625 C 6.519531 -20.015625 6.25 -19.757812 6.25 -19.25 L 6.25 -16.671875 C 6.25 -16.128906 6.507812 -15.859375 7.03125 -15.859375 L 10.28125 -15.859375 C 10.820312 -15.859375 11.09375 -16.117188 11.09375 -16.640625 Z M 11.09375 -11.515625 C 11.09375 -12.046875 10.832031 -12.3125 10.3125 -12.3125 L 7.0625 -12.3125 C 6.519531 -12.3125 6.25 -12.054688 6.25 -11.546875 L 6.25 -9.1875 C 6.25 -8.65625 6.507812 -8.390625 7.03125 -8.390625 L 10.28125 -8.390625 C 10.820312 -8.390625 11.09375 -8.644531 11.09375 -9.15625 Z M 11.09375 -3.96875 C 11.09375 -4.519531 10.84375 -4.796875 10.34375 -4.796875 L 7.0625 -4.796875 C 6.519531 -4.796875 6.25 -4.539062 6.25 -4.03125 L 6.25 -0.9375 C 6.25 -0.414062 6.570312 -0.175781 7.21875 -0.21875 C 8.25 -0.3125 9.28125 -0.441406 10.3125 -0.609375 C 10.832031 -0.691406 11.09375 -0.992188 11.09375 -1.515625 Z M 11.09375 -3.96875 "/></g></g><g style="fill:#ffffff;fill-opacity:1;"><g transform="translate(279.315192, 197.249987)"><path style="stroke:none" d="M 3.796875 -23.375 C 11.085938 -23.394531 18.734375 -23.835938 26.734375 -24.703125 C 27.378906 -24.765625 27.882812 -24.472656 28.25 -23.828125 L 29.078125 -22.3125 C 29.441406 -21.664062 29.269531 -21.300781 28.5625 -21.21875 C 25.507812 -20.894531 22.554688 -20.644531 19.703125 -20.46875 C 19.179688 -20.40625 18.921875 -20.117188 18.921875 -19.609375 L 18.921875 -17.46875 C 18.921875 -16.9375 19.179688 -16.671875 19.703125 -16.671875 L 28.21875 -16.671875 C 28.882812 -16.671875 29.21875 -16.347656 29.21875 -15.703125 L 29.21875 -13.921875 C 29.21875 -13.253906 28.894531 -12.921875 28.25 -12.921875 L 19.734375 -12.921875 C 19.191406 -12.921875 18.921875 -12.664062 18.921875 -12.15625 L 18.921875 -9.828125 C 18.921875 -9.296875 19.179688 -9.03125 19.703125 -9.03125 L 30.4375 -9.03125 C 31.101562 -9.03125 31.4375 -8.707031 31.4375 -8.0625 L 31.4375 -6.359375 C 31.4375 -5.691406 31.113281 -5.359375 30.46875 -5.359375 L 19.734375 -5.359375 C 19.191406 -5.359375 18.921875 -5.097656 18.921875 -4.578125 L 18.921875 0.9375 C 18.773438 2.550781 18.378906 3.613281 17.734375 4.125 C 16.421875 4.96875 14.734375 5.25 12.671875 4.96875 L 10.3125 4.734375 C 9.601562 4.648438 9.195312 4.222656 9.09375 3.453125 C 8.96875 2.890625 8.867188 2.316406 8.796875 1.734375 C 8.671875 1.003906 8.972656 0.707031 9.703125 0.84375 C 10.910156 1.03125 12.113281 1.132812 13.3125 1.15625 C 14.457031 1.375 15.003906 0.828125 14.953125 -0.484375 L 14.953125 -4.546875 C 14.953125 -5.085938 14.695312 -5.359375 14.1875 -5.359375 L 2.640625 -5.359375 C 1.972656 -5.359375 1.640625 -5.675781 1.640625 -6.3125 L 1.640625 -8.03125 C 1.640625 -8.695312 1.960938 -9.03125 2.609375 -9.03125 L 14.15625 -9.03125 C 14.6875 -9.03125 14.953125 -9.285156 14.953125 -9.796875 L 14.953125 -12.125 C 14.953125 -12.65625 14.695312 -12.921875 14.1875 -12.921875 L 5.125 -12.921875 C 4.457031 -12.921875 4.125 -13.242188 4.125 -13.890625 L 4.125 -15.671875 C 4.125 -16.335938 4.445312 -16.671875 5.09375 -16.671875 L 14.15625 -16.671875 C 14.6875 -16.671875 14.953125 -16.925781 14.953125 -17.4375 L 14.953125 -19.375 C 14.953125 -19.894531 14.632812 -20.15625 14 -20.15625 L 5 -19.921875 C 4.351562 -19.898438 3.910156 -20.210938 3.671875 -20.859375 C 3.460938 -21.378906 3.28125 -21.894531 3.125 -22.40625 C 2.9375 -23.050781 3.160156 -23.375 3.796875 -23.375 Z M 3.796875 -23.375 "/></g></g><g style="fill:#ffffff;fill-opacity:1;"><g transform="translate(262.938035, 164.945586)"><path style="stroke:none" d="M 4.265625 0 L 2.890625 0 L 0.328125 -6.734375 L 1.40625 -6.734375 L 3.53125 -1.140625 L 3.671875 -1.140625 L 5.765625 -6.734375 L 6.8125 -6.734375 Z M 4.265625 0 "/></g></g><g style="fill:#ffffff;fill-opacity:1;"><g transform="translate(270.07528, 164.945586)"><path style="stroke:none" d="M 0.640625 0 L 0.640625 -0.875 L 3.078125 -0.875 L 3.078125 -7.703125 L 2.9375 -7.734375 C 2.539062 -7.535156 2.191406 -7.382812 1.890625 -7.28125 C 1.597656 -7.175781 1.21875 -7.078125 0.75 -6.984375 L 0.75 -7.953125 C 1.207031 -8.046875 1.660156 -8.175781 2.109375 -8.34375 C 2.566406 -8.507812 2.976562 -8.707031 3.34375 -8.9375 L 4.09375 -8.9375 L 4.09375 -0.875 L 6.28125 -0.875 L 6.28125 0 Z M 0.640625 0 "/></g></g><g style="fill:#ffffff;fill-opacity:1;"><g transform="translate(276.73019, 164.945586)"><path style="stroke:none" d="M 1.640625 0.0625 C 1.410156 0.0625 1.226562 0 1.09375 -0.125 C 0.957031 -0.257812 0.890625 -0.4375 0.890625 -0.65625 C 0.890625 -0.863281 0.957031 -1.035156 1.09375 -1.171875 C 1.226562 -1.304688 1.410156 -1.375 1.640625 -1.375 C 1.878906 -1.375 2.066406 -1.304688 2.203125 -1.171875 C 2.335938 -1.046875 2.40625 -0.878906 2.40625 -0.671875 C 2.40625 -0.453125 2.335938 -0.273438 2.203125 -0.140625 C 2.066406 -0.00390625 1.878906 0.0625 1.640625 0.0625 Z M 1.640625 0.0625 "/></g></g><g style="fill:#ffffff;fill-opacity:1;"><g transform="translate(280.021019, 164.945586)"><path style="stroke:none" d="M 4.390625 0.125 C 3.734375 0.125 3.144531 -0.03125 2.625 -0.34375 C 2.101562 -0.65625 1.6875 -1.15625 1.375 -1.84375 C 1.070312 -2.53125 0.921875 -3.40625 0.921875 -4.46875 C 0.921875 -5.53125 1.070312 -6.398438 1.375 -7.078125 C 1.6875 -7.765625 2.101562 -8.265625 2.625 -8.578125 C 3.144531 -8.898438 3.734375 -9.0625 4.390625 -9.0625 C 5.046875 -9.0625 5.632812 -8.898438 6.15625 -8.578125 C 6.675781 -8.265625 7.085938 -7.765625 7.390625 -7.078125 C 7.703125 -6.398438 7.859375 -5.53125 7.859375 -4.46875 C 7.859375 -3.40625 7.703125 -2.53125 7.390625 -1.84375 C 7.085938 -1.15625 6.675781 -0.65625 6.15625 -0.34375 C 5.632812 -0.03125 5.046875 0.125 4.390625 0.125 Z M 4.390625 -0.84375 C 5.171875 -0.84375 5.757812 -1.125 6.15625 -1.6875 C 6.5625 -2.25 6.765625 -3.175781 6.765625 -4.46875 C 6.765625 -5.757812 6.5625 -6.6875 6.15625 -7.25 C 5.757812 -7.8125 5.171875 -8.09375 4.390625 -8.09375 C 3.878906 -8.09375 3.445312 -7.972656 3.09375 -7.734375 C 2.75 -7.492188 2.484375 -7.109375 2.296875 -6.578125 C 2.109375 -6.046875 2.015625 -5.34375 2.015625 -4.46875 C 2.015625 -3.59375 2.109375 -2.882812 2.296875 -2.34375 C 2.484375 -1.8125 2.75 -1.425781 3.09375 -1.1875 C 3.445312 -0.957031 3.878906 -0.84375 4.390625 -0.84375 Z M 4.390625 -0.84375 "/></g></g><g transform="matrix(1,0,0,1,135,219)"><g clip-path="url(#38ef61cf3e)"><g style="fill:#ffffff;fill-opacity:1;"><g transform="translate(0.680928, 11.728831)"><path style="stroke:none" d="M 5.921875 -3.109375 C 5.921875 -2.617188 5.863281 -2.171875 5.75 -1.765625 C 5.644531 -1.367188 5.472656 -1.023438 5.234375 -0.734375 C 5.003906 -0.453125 4.710938 -0.234375 4.359375 -0.078125 C 4.015625 0.078125 3.597656 0.15625 3.109375 0.15625 C 2.628906 0.15625 2.210938 0.078125 1.859375 -0.078125 C 1.515625 -0.234375 1.226562 -0.453125 1 -0.734375 C 0.769531 -1.023438 0.597656 -1.375 0.484375 -1.78125 C 0.378906 -2.1875 0.328125 -2.632812 0.328125 -3.125 L 0.328125 -8.734375 L 1.71875 -8.734375 L 1.71875 -3.109375 C 1.71875 -2.890625 1.734375 -2.660156 1.765625 -2.421875 C 1.796875 -2.191406 1.859375 -1.976562 1.953125 -1.78125 C 2.046875 -1.582031 2.1875 -1.414062 2.375 -1.28125 C 2.5625 -1.15625 2.804688 -1.09375 3.109375 -1.09375 C 3.410156 -1.09375 3.65625 -1.15625 3.84375 -1.28125 C 4.03125 -1.414062 4.175781 -1.578125 4.28125 -1.765625 C 4.382812 -1.960938 4.453125 -2.179688 4.484375 -2.421875 C 4.515625 -2.660156 4.53125 -2.890625 4.53125 -3.109375 L 4.53125 -8.734375 L 5.921875 -8.734375 Z M 5.921875 -3.109375 "/></g></g><g style="fill:#ffffff;fill-opacity:1;"><g transform="translate(9.539734, 11.728831)"><path style="stroke:none" d="M 6.015625 -2.390625 C 6.015625 -1.992188 5.945312 -1.632812 5.8125 -1.3125 C 5.675781 -1 5.488281 -0.734375 5.25 -0.515625 C 5.019531 -0.296875 4.742188 -0.128906 4.421875 -0.015625 C 4.097656 0.0976562 3.753906 0.15625 3.390625 0.15625 C 2.972656 0.15625 2.597656 0.0820312 2.265625 -0.0625 C 1.941406 -0.207031 1.660156 -0.453125 1.421875 -0.796875 L 1.421875 0 L 0.1875 0 L 0.1875 -2.859375 L 1.421875 -2.859375 C 1.421875 -2.566406 1.472656 -2.3125 1.578125 -2.09375 C 1.679688 -1.875 1.8125 -1.6875 1.96875 -1.53125 C 2.132812 -1.382812 2.328125 -1.269531 2.546875 -1.1875 C 2.765625 -1.113281 3 -1.078125 3.25 -1.078125 C 3.664062 -1.078125 4 -1.171875 4.25 -1.359375 C 4.507812 -1.554688 4.640625 -1.867188 4.640625 -2.296875 C 4.640625 -2.515625 4.597656 -2.703125 4.515625 -2.859375 C 4.441406 -3.015625 4.332031 -3.148438 4.1875 -3.265625 C 4.039062 -3.390625 3.859375 -3.5 3.640625 -3.59375 C 3.429688 -3.6875 3.195312 -3.785156 2.9375 -3.890625 C 2.613281 -3.992188 2.289062 -4.113281 1.96875 -4.25 C 1.65625 -4.382812 1.375 -4.546875 1.125 -4.734375 C 0.875 -4.929688 0.671875 -5.175781 0.515625 -5.46875 C 0.359375 -5.757812 0.28125 -6.125 0.28125 -6.5625 C 0.28125 -6.945312 0.347656 -7.28125 0.484375 -7.5625 C 0.628906 -7.851562 0.816406 -8.097656 1.046875 -8.296875 C 1.285156 -8.492188 1.5625 -8.640625 1.875 -8.734375 C 2.1875 -8.835938 2.515625 -8.890625 2.859375 -8.890625 C 3.265625 -8.890625 3.609375 -8.800781 3.890625 -8.625 C 4.179688 -8.457031 4.40625 -8.234375 4.5625 -7.953125 L 4.5625 -8.734375 L 5.8125 -8.734375 L 5.8125 -6.015625 L 4.5625 -6.015625 C 4.5625 -6.535156 4.425781 -6.9375 4.15625 -7.21875 C 3.894531 -7.507812 3.535156 -7.65625 3.078125 -7.65625 C 2.671875 -7.65625 2.332031 -7.5625 2.0625 -7.375 C 1.800781 -7.1875 1.671875 -6.921875 1.671875 -6.578125 C 1.671875 -6.410156 1.703125 -6.265625 1.765625 -6.140625 C 1.835938 -6.015625 1.941406 -5.898438 2.078125 -5.796875 C 2.210938 -5.703125 2.378906 -5.609375 2.578125 -5.515625 C 2.773438 -5.429688 3.007812 -5.335938 3.28125 -5.234375 C 3.601562 -5.117188 3.925781 -4.988281 4.25 -4.84375 C 4.582031 -4.695312 4.878906 -4.515625 5.140625 -4.296875 C 5.398438 -4.085938 5.609375 -3.828125 5.765625 -3.515625 C 5.929688 -3.210938 6.015625 -2.835938 6.015625 -2.390625 Z M 6.015625 -2.390625 "/></g></g><g style="fill:#ffffff;fill-opacity:1;"><g transform="translate(18.398539, 11.728831)"><path style="stroke:none" d="M 5.921875 0 L 0.328125 0 L 0.328125 -8.734375 L 5.921875 -8.734375 L 5.921875 -7.484375 L 1.71875 -7.484375 L 1.71875 -5.078125 L 4.984375 -5.078125 L 4.984375 -3.828125 L 1.71875 -3.828125 L 1.71875 -1.25 L 5.921875 -1.25 Z M 5.921875 0 "/></g></g><g style="fill:#ffffff;fill-opacity:1;"><g transform="translate(27.257344, 11.728831)"><path style="stroke:none" d="M 5.921875 -7.484375 L 1.71875 -7.484375 L 1.71875 -5.078125 L 4.984375 -5.078125 L 4.984375 -3.828125 L 1.71875 -3.828125 L 1.71875 0 L 0.328125 0 L 0.328125 -8.734375 L 5.921875 -8.734375 Z M 5.921875 -7.484375 "/></g></g><g style="fill:#ffffff;fill-opacity:1;"><g transform="translate(36.11615, 11.728831)"><path style="stroke:none" d="M 5.921875 -3.109375 C 5.921875 -2.617188 5.863281 -2.171875 5.75 -1.765625 C 5.644531 -1.367188 5.472656 -1.023438 5.234375 -0.734375 C 5.003906 -0.453125 4.710938 -0.234375 4.359375 -0.078125 C 4.015625 0.078125 3.597656 0.15625 3.109375 0.15625 C 2.628906 0.15625 2.210938 0.078125 1.859375 -0.078125 C 1.515625 -0.234375 1.226562 -0.453125 1 -0.734375 C 0.769531 -1.023438 0.597656 -1.375 0.484375 -1.78125 C 0.378906 -2.1875 0.328125 -2.632812 0.328125 -3.125 L 0.328125 -8.734375 L 1.71875 -8.734375 L 1.71875 -3.109375 C 1.71875 -2.890625 1.734375 -2.660156 1.765625 -2.421875 C 1.796875 -2.191406 1.859375 -1.976562 1.953125 -1.78125 C 2.046875 -1.582031 2.1875 -1.414062 2.375 -1.28125 C 2.5625 -1.15625 2.804688 -1.09375 3.109375 -1.09375 C 3.410156 -1.09375 3.65625 -1.15625 3.84375 -1.28125 C 4.03125 -1.414062 4.175781 -1.578125 4.28125 -1.765625 C 4.382812 -1.960938 4.453125 -2.179688 4.484375 -2.421875 C 4.515625 -2.660156 4.53125 -2.890625 4.53125 -3.109375 L 4.53125 -8.734375 L 5.921875 -8.734375 Z M 5.921875 -3.109375 "/></g></g><g style="fill:#ffffff;fill-opacity:1;"><g transform="translate(44.974955, 11.728831)"><path style="stroke:none" d="M 5.921875 0 L 0.328125 0 L 0.328125 -8.734375 L 1.71875 -8.734375 L 1.71875 -1.25 L 5.921875 -1.25 Z M 5.921875 0 "/></g></g><g style="fill:#ffffff;fill-opacity:1;"><g transform="translate(53.83376, 11.728831)"><path style="stroke:none" d=""/></g></g><g style="fill:#ffffff;fill-opacity:1;"><g transform="translate(62.692566, 11.728831)"><path style="stroke:none" d="M 6.234375 -5.546875 L 4.984375 -5.546875 L 4.984375 -7.484375 L 3.8125 -7.484375 L 3.8125 -1.25 L 5.203125 -1.25 L 5.203125 0 L 1.046875 0 L 1.046875 -1.25 L 2.421875 -1.25 L 2.421875 -7.484375 L 1.234375 -7.484375 L 1.234375 -5.546875 L 0 -5.546875 L 0 -8.734375 L 6.234375 -8.734375 Z M 6.234375 -5.546875 "/></g></g><g style="fill:#ffffff;fill-opacity:1;"><g transform="translate(71.551371, 11.728831)"><path style="stroke:none" d="M -0.21875 -4.375 C -0.21875 -4.957031 -0.15625 -5.519531 -0.03125 -6.0625 C 0.09375 -6.613281 0.285156 -7.09375 0.546875 -7.5 C 0.804688 -7.914062 1.148438 -8.25 1.578125 -8.5 C 2.003906 -8.757812 2.519531 -8.890625 3.125 -8.890625 C 3.726562 -8.890625 4.242188 -8.757812 4.671875 -8.5 C 5.097656 -8.25 5.441406 -7.914062 5.703125 -7.5 C 5.972656 -7.09375 6.171875 -6.613281 6.296875 -6.0625 C 6.421875 -5.519531 6.484375 -4.957031 6.484375 -4.375 C 6.484375 -3.789062 6.421875 -3.226562 6.296875 -2.6875 C 6.171875 -2.144531 5.976562 -1.660156 5.71875 -1.234375 C 5.457031 -0.816406 5.113281 -0.476562 4.6875 -0.21875 C 4.257812 0.03125 3.738281 0.15625 3.125 0.15625 C 2.507812 0.15625 1.988281 0.03125 1.5625 -0.21875 C 1.144531 -0.476562 0.800781 -0.816406 0.53125 -1.234375 C 0.269531 -1.660156 0.0820312 -2.144531 -0.03125 -2.6875 C -0.15625 -3.226562 -0.21875 -3.789062 -0.21875 -4.375 Z M 1.171875 -4.375 C 1.171875 -3.976562 1.195312 -3.582031 1.25 -3.1875 C 1.3125 -2.800781 1.414062 -2.453125 1.5625 -2.140625 C 1.707031 -1.828125 1.90625 -1.570312 2.15625 -1.375 C 2.40625 -1.1875 2.726562 -1.09375 3.125 -1.09375 C 3.519531 -1.09375 3.84375 -1.1875 4.09375 -1.375 C 4.34375 -1.570312 4.539062 -1.828125 4.6875 -2.140625 C 4.832031 -2.453125 4.9375 -2.800781 5 -3.1875 C 5.0625 -3.582031 5.09375 -3.976562 5.09375 -4.375 C 5.09375 -4.769531 5.0625 -5.160156 5 -5.546875 C 4.9375 -5.929688 4.832031 -6.28125 4.6875 -6.59375 C 4.539062 -6.90625 4.335938 -7.15625 4.078125 -7.34375 C 3.828125 -7.539062 3.507812 -7.640625 3.125 -7.640625 C 2.488281 -7.640625 2.003906 -7.351562 1.671875 -6.78125 C 1.335938 -6.207031 1.171875 -5.40625 1.171875 -4.375 Z M 1.171875 -4.375 "/></g></g><g style="fill:#ffffff;fill-opacity:1;"><g transform="translate(80.410176, 11.728831)"><path style="stroke:none" d="M -0.21875 -4.375 C -0.21875 -4.957031 -0.15625 -5.519531 -0.03125 -6.0625 C 0.09375 -6.613281 0.285156 -7.09375 0.546875 -7.5 C 0.804688 -7.914062 1.148438 -8.25 1.578125 -8.5 C 2.003906 -8.757812 2.519531 -8.890625 3.125 -8.890625 C 3.726562 -8.890625 4.242188 -8.757812 4.671875 -8.5 C 5.097656 -8.25 5.441406 -7.914062 5.703125 -7.5 C 5.972656 -7.09375 6.171875 -6.613281 6.296875 -6.0625 C 6.421875 -5.519531 6.484375 -4.957031 6.484375 -4.375 C 6.484375 -3.789062 6.421875 -3.226562 6.296875 -2.6875 C 6.171875 -2.144531 5.976562 -1.660156 5.71875 -1.234375 C 5.457031 -0.816406 5.113281 -0.476562 4.6875 -0.21875 C 4.257812 0.03125 3.738281 0.15625 3.125 0.15625 C 2.507812 0.15625 1.988281 0.03125 1.5625 -0.21875 C 1.144531 -0.476562 0.800781 -0.816406 0.53125 -1.234375 C 0.269531 -1.660156 0.0820312 -2.144531 -0.03125 -2.6875 C -0.15625 -3.226562 -0.21875 -3.789062 -0.21875 -4.375 Z M 1.171875 -4.375 C 1.171875 -3.976562 1.195312 -3.582031 1.25 -3.1875 C 1.3125 -2.800781 1.414062 -2.453125 1.5625 -2.140625 C 1.707031 -1.828125 1.90625 -1.570312 2.15625 -1.375 C 2.40625 -1.1875 2.726562 -1.09375 3.125 -1.09375 C 3.519531 -1.09375 3.84375 -1.1875 4.09375 -1.375 C 4.34375 -1.570312 4.539062 -1.828125 4.6875 -2.140625 C 4.832031 -2.453125 4.9375 -2.800781 5 -3.1875 C 5.0625 -3.582031 5.09375 -3.976562 5.09375 -4.375 C 5.09375 -4.769531 5.0625 -5.160156 5 -5.546875 C 4.9375 -5.929688 4.832031 -6.28125 4.6875 -6.59375 C 4.539062 -6.90625 4.335938 -7.15625 4.078125 -7.34375 C 3.828125 -7.539062 3.507812 -7.640625 3.125 -7.640625 C 2.488281 -7.640625 2.003906 -7.351562 1.671875 -6.78125 C 1.335938 -6.207031 1.171875 -5.40625 1.171875 -4.375 Z M 1.171875 -4.375 "/></g></g><g style="fill:#ffffff;fill-opacity:1;"><g transform="translate(89.268982, 11.728831)"><path style="stroke:none" d="M 5.921875 0 L 0.328125 0 L 0.328125 -8.734375 L 1.71875 -8.734375 L 1.71875 -1.25 L 5.921875 -1.25 Z M 5.921875 0 "/></g></g><g style="fill:#ffffff;fill-opacity:1;"><g transform="translate(98.127787, 11.728831)"><path style="stroke:none" d=""/></g></g><g style="fill:#ffffff;fill-opacity:1;"><g transform="translate(106.986592, 11.728831)"><path style="stroke:none" d="M 5.921875 -7.484375 L 1.71875 -7.484375 L 1.71875 -5.078125 L 4.984375 -5.078125 L 4.984375 -3.828125 L 1.71875 -3.828125 L 1.71875 0 L 0.328125 0 L 0.328125 -8.734375 L 5.921875 -8.734375 Z M 5.921875 -7.484375 "/></g></g><g style="fill:#ffffff;fill-opacity:1;"><g transform="translate(115.845398, 11.728831)"><path style="stroke:none" d="M -0.21875 -4.375 C -0.21875 -4.957031 -0.15625 -5.519531 -0.03125 -6.0625 C 0.09375 -6.613281 0.285156 -7.09375 0.546875 -7.5 C 0.804688 -7.914062 1.148438 -8.25 1.578125 -8.5 C 2.003906 -8.757812 2.519531 -8.890625 3.125 -8.890625 C 3.726562 -8.890625 4.242188 -8.757812 4.671875 -8.5 C 5.097656 -8.25 5.441406 -7.914062 5.703125 -7.5 C 5.972656 -7.09375 6.171875 -6.613281 6.296875 -6.0625 C 6.421875 -5.519531 6.484375 -4.957031 6.484375 -4.375 C 6.484375 -3.789062 6.421875 -3.226562 6.296875 -2.6875 C 6.171875 -2.144531 5.976562 -1.660156 5.71875 -1.234375 C 5.457031 -0.816406 5.113281 -0.476562 4.6875 -0.21875 C 4.257812 0.03125 3.738281 0.15625 3.125 0.15625 C 2.507812 0.15625 1.988281 0.03125 1.5625 -0.21875 C 1.144531 -0.476562 0.800781 -0.816406 0.53125 -1.234375 C 0.269531 -1.660156 0.0820312 -2.144531 -0.03125 -2.6875 C -0.15625 -3.226562 -0.21875 -3.789062 -0.21875 -4.375 Z M 1.171875 -4.375 C 1.171875 -3.976562 1.195312 -3.582031 1.25 -3.1875 C 1.3125 -2.800781 1.414062 -2.453125 1.5625 -2.140625 C 1.707031 -1.828125 1.90625 -1.570312 2.15625 -1.375 C 2.40625 -1.1875 2.726562 -1.09375 3.125 -1.09375 C 3.519531 -1.09375 3.84375 -1.1875 4.09375 -1.375 C 4.34375 -1.570312 4.539062 -1.828125 4.6875 -2.140625 C 4.832031 -2.453125 4.9375 -2.800781 5 -3.1875 C 5.0625 -3.582031 5.09375 -3.976562 5.09375 -4.375 C 5.09375 -4.769531 5.0625 -5.160156 5 -5.546875 C 4.9375 -5.929688 4.832031 -6.28125 4.6875 -6.59375 C 4.539062 -6.90625 4.335938 -7.15625 4.078125 -7.34375 C 3.828125 -7.539062 3.507812 -7.640625 3.125 -7.640625 C 2.488281 -7.640625 2.003906 -7.351562 1.671875 -6.78125 C 1.335938 -6.207031 1.171875 -5.40625 1.171875 -4.375 Z M 1.171875 -4.375 "/></g></g><g style="fill:#ffffff;fill-opacity:1;"><g transform="translate(124.704203, 11.728831)"><path style="stroke:none" d="M 6.359375 0 L 4.609375 0 L 2.34375 -3.53125 L 1.71875 -3.53125 L 1.71875 0 L 0.328125 0 L 0.328125 -8.734375 L 3.203125 -8.734375 C 4.171875 -8.734375 4.921875 -8.515625 5.453125 -8.078125 C 5.984375 -7.640625 6.25 -6.988281 6.25 -6.125 C 6.25 -5.738281 6.1875 -5.398438 6.0625 -5.109375 C 5.945312 -4.816406 5.78125 -4.566406 5.5625 -4.359375 C 5.34375 -4.148438 5.085938 -3.984375 4.796875 -3.859375 C 4.515625 -3.734375 4.207031 -3.648438 3.875 -3.609375 Z M 4.859375 -6.15625 C 4.859375 -6.59375 4.710938 -6.921875 4.421875 -7.140625 C 4.128906 -7.367188 3.722656 -7.484375 3.203125 -7.484375 L 1.71875 -7.484375 L 1.71875 -4.796875 L 3.203125 -4.796875 C 3.722656 -4.796875 4.128906 -4.90625 4.421875 -5.125 C 4.710938 -5.34375 4.859375 -5.6875 4.859375 -6.15625 Z M 4.859375 -6.15625 "/></g></g><g style="fill:#ffffff;fill-opacity:1;"><g transform="translate(133.563008, 11.728831)"><path style="stroke:none" d=""/></g></g><g style="fill:#ffffff;fill-opacity:1;"><g transform="translate(142.421814, 11.728831)"><path style="stroke:none" d="M 6.015625 -2.390625 C 6.015625 -1.992188 5.945312 -1.632812 5.8125 -1.3125 C 5.675781 -1 5.488281 -0.734375 5.25 -0.515625 C 5.019531 -0.296875 4.742188 -0.128906 4.421875 -0.015625 C 4.097656 0.0976562 3.753906 0.15625 3.390625 0.15625 C 2.972656 0.15625 2.597656 0.0820312 2.265625 -0.0625 C 1.941406 -0.207031 1.660156 -0.453125 1.421875 -0.796875 L 1.421875 0 L 0.1875 0 L 0.1875 -2.859375 L 1.421875 -2.859375 C 1.421875 -2.566406 1.472656 -2.3125 1.578125 -2.09375 C 1.679688 -1.875 1.8125 -1.6875 1.96875 -1.53125 C 2.132812 -1.382812 2.328125 -1.269531 2.546875 -1.1875 C 2.765625 -1.113281 3 -1.078125 3.25 -1.078125 C 3.664062 -1.078125 4 -1.171875 4.25 -1.359375 C 4.507812 -1.554688 4.640625 -1.867188 4.640625 -2.296875 C 4.640625 -2.515625 4.597656 -2.703125 4.515625 -2.859375 C 4.441406 -3.015625 4.332031 -3.148438 4.1875 -3.265625 C 4.039062 -3.390625 3.859375 -3.5 3.640625 -3.59375 C 3.429688 -3.6875 3.195312 -3.785156 2.9375 -3.890625 C 2.613281 -3.992188 2.289062 -4.113281 1.96875 -4.25 C 1.65625 -4.382812 1.375 -4.546875 1.125 -4.734375 C 0.875 -4.929688 0.671875 -5.175781 0.515625 -5.46875 C 0.359375 -5.757812 0.28125 -6.125 0.28125 -6.5625 C 0.28125 -6.945312 0.347656 -7.28125 0.484375 -7.5625 C 0.628906 -7.851562 0.816406 -8.097656 1.046875 -8.296875 C 1.285156 -8.492188 1.5625 -8.640625 1.875 -8.734375 C 2.1875 -8.835938 2.515625 -8.890625 2.859375 -8.890625 C 3.265625 -8.890625 3.609375 -8.800781 3.890625 -8.625 C 4.179688 -8.457031 4.40625 -8.234375 4.5625 -7.953125 L 4.5625 -8.734375 L 5.8125 -8.734375 L 5.8125 -6.015625 L 4.5625 -6.015625 C 4.5625 -6.535156 4.425781 -6.9375 4.15625 -7.21875 C 3.894531 -7.507812 3.535156 -7.65625 3.078125 -7.65625 C 2.671875 -7.65625 2.332031 -7.5625 2.0625 -7.375 C 1.800781 -7.1875 1.671875 -6.921875 1.671875 -6.578125 C 1.671875 -6.410156 1.703125 -6.265625 1.765625 -6.140625 C 1.835938 -6.015625 1.941406 -5.898438 2.078125 -5.796875 C 2.210938 -5.703125 2.378906 -5.609375 2.578125 -5.515625 C 2.773438 -5.429688 3.007812 -5.335938 3.28125 -5.234375 C 3.601562 -5.117188 3.925781 -4.988281 4.25 -4.84375 C 4.582031 -4.695312 4.878906 -4.515625 5.140625 -4.296875 C 5.398438 -4.085938 5.609375 -3.828125 5.765625 -3.515625 C 5.929688 -3.210938 6.015625 -2.835938 6.015625 -2.390625 Z M 6.015625 -2.390625 "/></g></g><g style="fill:#ffffff;fill-opacity:1;"><g transform="translate(151.280619, 11.728831)"><path style="stroke:none" d="M 6.234375 -5.546875 L 4.984375 -5.546875 L 4.984375 -7.484375 L 3.8125 -7.484375 L 3.8125 -1.25 L 5.203125 -1.25 L 5.203125 0 L 1.046875 0 L 1.046875 -1.25 L 2.421875 -1.25 L 2.421875 -7.484375 L 1.234375 -7.484375 L 1.234375 -5.546875 L 0 -5.546875 L 0 -8.734375 L 6.234375 -8.734375 Z M 6.234375 -5.546875 "/></g></g><g style="fill:#ffffff;fill-opacity:1;"><g transform="translate(160.139424, 11.728831)"><path style="stroke:none" d="M 5.921875 -3.109375 C 5.921875 -2.617188 5.863281 -2.171875 5.75 -1.765625 C 5.644531 -1.367188 5.472656 -1.023438 5.234375 -0.734375 C 5.003906 -0.453125 4.710938 -0.234375 4.359375 -0.078125 C 4.015625 0.078125 3.597656 0.15625 3.109375 0.15625 C 2.628906 0.15625 2.210938 0.078125 1.859375 -0.078125 C 1.515625 -0.234375 1.226562 -0.453125 1 -0.734375 C 0.769531 -1.023438 0.597656 -1.375 0.484375 -1.78125 C 0.378906 -2.1875 0.328125 -2.632812 0.328125 -3.125 L 0.328125 -8.734375 L 1.71875 -8.734375 L 1.71875 -3.109375 C 1.71875 -2.890625 1.734375 -2.660156 1.765625 -2.421875 C 1.796875 -2.191406 1.859375 -1.976562 1.953125 -1.78125 C 2.046875 -1.582031 2.1875 -1.414062 2.375 -1.28125 C 2.5625 -1.15625 2.804688 -1.09375 3.109375 -1.09375 C 3.410156 -1.09375 3.65625 -1.15625 3.84375 -1.28125 C 4.03125 -1.414062 4.175781 -1.578125 4.28125 -1.765625 C 4.382812 -1.960938 4.453125 -2.179688 4.484375 -2.421875 C 4.515625 -2.660156 4.53125 -2.890625 4.53125 -3.109375 L 4.53125 -8.734375 L 5.921875 -8.734375 Z M 5.921875 -3.109375 "/></g></g><g style="fill:#ffffff;fill-opacity:1;"><g transform="translate(168.99823, 11.728831)"><path style="stroke:none" d="M 6.53125 -4.375 C 6.53125 -3.789062 6.46875 -3.234375 6.34375 -2.703125 C 6.21875 -2.171875 6.019531 -1.703125 5.75 -1.296875 C 5.488281 -0.898438 5.144531 -0.582031 4.71875 -0.34375 C 4.289062 -0.113281 3.773438 0 3.171875 0 L 0.328125 0 L 0.328125 -8.734375 L 3.171875 -8.734375 C 3.765625 -8.734375 4.273438 -8.613281 4.703125 -8.375 C 5.128906 -8.144531 5.476562 -7.828125 5.75 -7.421875 C 6.019531 -7.023438 6.21875 -6.5625 6.34375 -6.03125 C 6.46875 -5.507812 6.53125 -4.957031 6.53125 -4.375 Z M 5.140625 -4.375 C 5.140625 -5.382812 4.96875 -6.15625 4.625 -6.6875 C 4.28125 -7.21875 3.796875 -7.484375 3.171875 -7.484375 L 1.71875 -7.484375 L 1.71875 -1.25 L 3.171875 -1.25 C 3.796875 -1.25 4.28125 -1.519531 4.625 -2.0625 C 4.96875 -2.601562 5.140625 -3.375 5.140625 -4.375 Z M 5.140625 -4.375 "/></g></g><g style="fill:#ffffff;fill-opacity:1;"><g transform="translate(177.857035, 11.728831)"><path style="stroke:none" d="M 5.921875 0 L 0.328125 0 L 0.328125 -8.734375 L 5.921875 -8.734375 L 5.921875 -7.484375 L 1.71875 -7.484375 L 1.71875 -5.078125 L 4.984375 -5.078125 L 4.984375 -3.828125 L 1.71875 -3.828125 L 1.71875 -1.25 L 5.921875 -1.25 Z M 5.921875 0 "/></g></g><g style="fill:#ffffff;fill-opacity:1;"><g transform="translate(186.71584, 11.728831)"><path style="stroke:none" d="M 5.921875 0 L 4.3125 0 L 1.71875 -6.34375 L 1.71875 0 L 0.328125 0 L 0.328125 -8.734375 L 2.0625 -8.734375 L 4.53125 -2.71875 L 4.53125 -8.734375 L 5.921875 -8.734375 Z M 5.921875 0 "/></g></g><g style="fill:#ffffff;fill-opacity:1;"><g transform="translate(195.574646, 11.728831)"><path style="stroke:none" d="M 6.234375 -5.546875 L 4.984375 -5.546875 L 4.984375 -7.484375 L 3.8125 -7.484375 L 3.8125 -1.25 L 5.203125 -1.25 L 5.203125 0 L 1.046875 0 L 1.046875 -1.25 L 2.421875 -1.25 L 2.421875 -7.484375 L 1.234375 -7.484375 L 1.234375 -5.546875 L 0 -5.546875 L 0 -8.734375 L 6.234375 -8.734375 Z M 6.234375 -5.546875 "/></g></g></g></g></g></svg>